%TF.GenerationSoftware,KiCad,Pcbnew,10.0.3*%
%TF.CreationDate,2026-06-29T16:15:17-07:00*%
%TF.ProjectId,poachstopper,706f6163-6873-4746-9f70-7065722e6b69,rev?*%
%TF.SameCoordinates,Original*%
%TF.FileFunction,AssemblyDrawing,Top*%
%FSLAX46Y46*%
G04 Gerber Fmt 4.6, Leading zero omitted, Abs format (unit mm)*
G04 Created by KiCad (PCBNEW 10.0.3) date 2026-06-29 16:15:17*
%MOMM*%
%LPD*%
G01*
G04 APERTURE LIST*
%ADD10C,0.150000*%
%ADD11C,0.105000*%
%ADD12C,0.100000*%
%ADD13C,0.127000*%
%ADD14C,0.200000*%
%ADD15C,0.025400*%
%ADD16C,0.508000*%
G04 APERTURE END LIST*
D10*
X151809523Y-102554819D02*
X151238095Y-102554819D01*
X151523809Y-102554819D02*
X151523809Y-101554819D01*
X151523809Y-101554819D02*
X151428571Y-101697676D01*
X151428571Y-101697676D02*
X151333333Y-101792914D01*
X151333333Y-101792914D02*
X151238095Y-101840533D01*
X152428571Y-101554819D02*
X152523809Y-101554819D01*
X152523809Y-101554819D02*
X152619047Y-101602438D01*
X152619047Y-101602438D02*
X152666666Y-101650057D01*
X152666666Y-101650057D02*
X152714285Y-101745295D01*
X152714285Y-101745295D02*
X152761904Y-101935771D01*
X152761904Y-101935771D02*
X152761904Y-102173866D01*
X152761904Y-102173866D02*
X152714285Y-102364342D01*
X152714285Y-102364342D02*
X152666666Y-102459580D01*
X152666666Y-102459580D02*
X152619047Y-102507200D01*
X152619047Y-102507200D02*
X152523809Y-102554819D01*
X152523809Y-102554819D02*
X152428571Y-102554819D01*
X152428571Y-102554819D02*
X152333333Y-102507200D01*
X152333333Y-102507200D02*
X152285714Y-102459580D01*
X152285714Y-102459580D02*
X152238095Y-102364342D01*
X152238095Y-102364342D02*
X152190476Y-102173866D01*
X152190476Y-102173866D02*
X152190476Y-101935771D01*
X152190476Y-101935771D02*
X152238095Y-101745295D01*
X152238095Y-101745295D02*
X152285714Y-101650057D01*
X152285714Y-101650057D02*
X152333333Y-101602438D01*
X152333333Y-101602438D02*
X152428571Y-101554819D01*
D11*
X151883333Y-100318373D02*
X151650000Y-99985040D01*
X151483333Y-100318373D02*
X151483333Y-99618373D01*
X151483333Y-99618373D02*
X151750000Y-99618373D01*
X151750000Y-99618373D02*
X151816667Y-99651706D01*
X151816667Y-99651706D02*
X151850000Y-99685040D01*
X151850000Y-99685040D02*
X151883333Y-99751706D01*
X151883333Y-99751706D02*
X151883333Y-99851706D01*
X151883333Y-99851706D02*
X151850000Y-99918373D01*
X151850000Y-99918373D02*
X151816667Y-99951706D01*
X151816667Y-99951706D02*
X151750000Y-99985040D01*
X151750000Y-99985040D02*
X151483333Y-99985040D01*
X152150000Y-99685040D02*
X152183333Y-99651706D01*
X152183333Y-99651706D02*
X152250000Y-99618373D01*
X152250000Y-99618373D02*
X152416667Y-99618373D01*
X152416667Y-99618373D02*
X152483333Y-99651706D01*
X152483333Y-99651706D02*
X152516667Y-99685040D01*
X152516667Y-99685040D02*
X152550000Y-99751706D01*
X152550000Y-99751706D02*
X152550000Y-99818373D01*
X152550000Y-99818373D02*
X152516667Y-99918373D01*
X152516667Y-99918373D02*
X152116667Y-100318373D01*
X152116667Y-100318373D02*
X152550000Y-100318373D01*
D10*
X138142857Y-92354819D02*
X137666667Y-92354819D01*
X137666667Y-92354819D02*
X137619048Y-92831009D01*
X137619048Y-92831009D02*
X137666667Y-92783390D01*
X137666667Y-92783390D02*
X137761905Y-92735771D01*
X137761905Y-92735771D02*
X138000000Y-92735771D01*
X138000000Y-92735771D02*
X138095238Y-92783390D01*
X138095238Y-92783390D02*
X138142857Y-92831009D01*
X138142857Y-92831009D02*
X138190476Y-92926247D01*
X138190476Y-92926247D02*
X138190476Y-93164342D01*
X138190476Y-93164342D02*
X138142857Y-93259580D01*
X138142857Y-93259580D02*
X138095238Y-93307200D01*
X138095238Y-93307200D02*
X138000000Y-93354819D01*
X138000000Y-93354819D02*
X137761905Y-93354819D01*
X137761905Y-93354819D02*
X137666667Y-93307200D01*
X137666667Y-93307200D02*
X137619048Y-93259580D01*
X139047619Y-92354819D02*
X138857143Y-92354819D01*
X138857143Y-92354819D02*
X138761905Y-92402438D01*
X138761905Y-92402438D02*
X138714286Y-92450057D01*
X138714286Y-92450057D02*
X138619048Y-92592914D01*
X138619048Y-92592914D02*
X138571429Y-92783390D01*
X138571429Y-92783390D02*
X138571429Y-93164342D01*
X138571429Y-93164342D02*
X138619048Y-93259580D01*
X138619048Y-93259580D02*
X138666667Y-93307200D01*
X138666667Y-93307200D02*
X138761905Y-93354819D01*
X138761905Y-93354819D02*
X138952381Y-93354819D01*
X138952381Y-93354819D02*
X139047619Y-93307200D01*
X139047619Y-93307200D02*
X139095238Y-93259580D01*
X139095238Y-93259580D02*
X139142857Y-93164342D01*
X139142857Y-93164342D02*
X139142857Y-92926247D01*
X139142857Y-92926247D02*
X139095238Y-92831009D01*
X139095238Y-92831009D02*
X139047619Y-92783390D01*
X139047619Y-92783390D02*
X138952381Y-92735771D01*
X138952381Y-92735771D02*
X138761905Y-92735771D01*
X138761905Y-92735771D02*
X138666667Y-92783390D01*
X138666667Y-92783390D02*
X138619048Y-92831009D01*
X138619048Y-92831009D02*
X138571429Y-92926247D01*
X139571429Y-93259580D02*
X139619048Y-93307200D01*
X139619048Y-93307200D02*
X139571429Y-93354819D01*
X139571429Y-93354819D02*
X139523810Y-93307200D01*
X139523810Y-93307200D02*
X139571429Y-93259580D01*
X139571429Y-93259580D02*
X139571429Y-93354819D01*
X140000000Y-92450057D02*
X140047619Y-92402438D01*
X140047619Y-92402438D02*
X140142857Y-92354819D01*
X140142857Y-92354819D02*
X140380952Y-92354819D01*
X140380952Y-92354819D02*
X140476190Y-92402438D01*
X140476190Y-92402438D02*
X140523809Y-92450057D01*
X140523809Y-92450057D02*
X140571428Y-92545295D01*
X140571428Y-92545295D02*
X140571428Y-92640533D01*
X140571428Y-92640533D02*
X140523809Y-92783390D01*
X140523809Y-92783390D02*
X139952381Y-93354819D01*
X139952381Y-93354819D02*
X140571428Y-93354819D01*
X141000000Y-93354819D02*
X141000000Y-92354819D01*
X141095238Y-92973866D02*
X141380952Y-93354819D01*
X141380952Y-92688152D02*
X141000000Y-93069104D01*
D11*
X139383333Y-91318373D02*
X139150000Y-90985040D01*
X138983333Y-91318373D02*
X138983333Y-90618373D01*
X138983333Y-90618373D02*
X139250000Y-90618373D01*
X139250000Y-90618373D02*
X139316667Y-90651706D01*
X139316667Y-90651706D02*
X139350000Y-90685040D01*
X139350000Y-90685040D02*
X139383333Y-90751706D01*
X139383333Y-90751706D02*
X139383333Y-90851706D01*
X139383333Y-90851706D02*
X139350000Y-90918373D01*
X139350000Y-90918373D02*
X139316667Y-90951706D01*
X139316667Y-90951706D02*
X139250000Y-90985040D01*
X139250000Y-90985040D02*
X138983333Y-90985040D01*
X139616667Y-90618373D02*
X140083333Y-90618373D01*
X140083333Y-90618373D02*
X139783333Y-91318373D01*
D10*
X137952380Y-90354819D02*
X137380952Y-90354819D01*
X137666666Y-90354819D02*
X137666666Y-89354819D01*
X137666666Y-89354819D02*
X137571428Y-89497676D01*
X137571428Y-89497676D02*
X137476190Y-89592914D01*
X137476190Y-89592914D02*
X137380952Y-89640533D01*
X138571428Y-89354819D02*
X138666666Y-89354819D01*
X138666666Y-89354819D02*
X138761904Y-89402438D01*
X138761904Y-89402438D02*
X138809523Y-89450057D01*
X138809523Y-89450057D02*
X138857142Y-89545295D01*
X138857142Y-89545295D02*
X138904761Y-89735771D01*
X138904761Y-89735771D02*
X138904761Y-89973866D01*
X138904761Y-89973866D02*
X138857142Y-90164342D01*
X138857142Y-90164342D02*
X138809523Y-90259580D01*
X138809523Y-90259580D02*
X138761904Y-90307200D01*
X138761904Y-90307200D02*
X138666666Y-90354819D01*
X138666666Y-90354819D02*
X138571428Y-90354819D01*
X138571428Y-90354819D02*
X138476190Y-90307200D01*
X138476190Y-90307200D02*
X138428571Y-90259580D01*
X138428571Y-90259580D02*
X138380952Y-90164342D01*
X138380952Y-90164342D02*
X138333333Y-89973866D01*
X138333333Y-89973866D02*
X138333333Y-89735771D01*
X138333333Y-89735771D02*
X138380952Y-89545295D01*
X138380952Y-89545295D02*
X138428571Y-89450057D01*
X138428571Y-89450057D02*
X138476190Y-89402438D01*
X138476190Y-89402438D02*
X138571428Y-89354819D01*
X139523809Y-89354819D02*
X139619047Y-89354819D01*
X139619047Y-89354819D02*
X139714285Y-89402438D01*
X139714285Y-89402438D02*
X139761904Y-89450057D01*
X139761904Y-89450057D02*
X139809523Y-89545295D01*
X139809523Y-89545295D02*
X139857142Y-89735771D01*
X139857142Y-89735771D02*
X139857142Y-89973866D01*
X139857142Y-89973866D02*
X139809523Y-90164342D01*
X139809523Y-90164342D02*
X139761904Y-90259580D01*
X139761904Y-90259580D02*
X139714285Y-90307200D01*
X139714285Y-90307200D02*
X139619047Y-90354819D01*
X139619047Y-90354819D02*
X139523809Y-90354819D01*
X139523809Y-90354819D02*
X139428571Y-90307200D01*
X139428571Y-90307200D02*
X139380952Y-90259580D01*
X139380952Y-90259580D02*
X139333333Y-90164342D01*
X139333333Y-90164342D02*
X139285714Y-89973866D01*
X139285714Y-89973866D02*
X139285714Y-89735771D01*
X139285714Y-89735771D02*
X139333333Y-89545295D01*
X139333333Y-89545295D02*
X139380952Y-89450057D01*
X139380952Y-89450057D02*
X139428571Y-89402438D01*
X139428571Y-89402438D02*
X139523809Y-89354819D01*
X140285714Y-89688152D02*
X140285714Y-90354819D01*
X140285714Y-89783390D02*
X140333333Y-89735771D01*
X140333333Y-89735771D02*
X140428571Y-89688152D01*
X140428571Y-89688152D02*
X140571428Y-89688152D01*
X140571428Y-89688152D02*
X140666666Y-89735771D01*
X140666666Y-89735771D02*
X140714285Y-89831009D01*
X140714285Y-89831009D02*
X140714285Y-90354819D01*
X141523809Y-89831009D02*
X141190476Y-89831009D01*
X141190476Y-90354819D02*
X141190476Y-89354819D01*
X141190476Y-89354819D02*
X141666666Y-89354819D01*
D11*
X139383333Y-88251706D02*
X139350000Y-88285040D01*
X139350000Y-88285040D02*
X139250000Y-88318373D01*
X139250000Y-88318373D02*
X139183333Y-88318373D01*
X139183333Y-88318373D02*
X139083333Y-88285040D01*
X139083333Y-88285040D02*
X139016667Y-88218373D01*
X139016667Y-88218373D02*
X138983333Y-88151706D01*
X138983333Y-88151706D02*
X138950000Y-88018373D01*
X138950000Y-88018373D02*
X138950000Y-87918373D01*
X138950000Y-87918373D02*
X138983333Y-87785040D01*
X138983333Y-87785040D02*
X139016667Y-87718373D01*
X139016667Y-87718373D02*
X139083333Y-87651706D01*
X139083333Y-87651706D02*
X139183333Y-87618373D01*
X139183333Y-87618373D02*
X139250000Y-87618373D01*
X139250000Y-87618373D02*
X139350000Y-87651706D01*
X139350000Y-87651706D02*
X139383333Y-87685040D01*
X139650000Y-87685040D02*
X139683333Y-87651706D01*
X139683333Y-87651706D02*
X139750000Y-87618373D01*
X139750000Y-87618373D02*
X139916667Y-87618373D01*
X139916667Y-87618373D02*
X139983333Y-87651706D01*
X139983333Y-87651706D02*
X140016667Y-87685040D01*
X140016667Y-87685040D02*
X140050000Y-87751706D01*
X140050000Y-87751706D02*
X140050000Y-87818373D01*
X140050000Y-87818373D02*
X140016667Y-87918373D01*
X140016667Y-87918373D02*
X139616667Y-88318373D01*
X139616667Y-88318373D02*
X140050000Y-88318373D01*
D10*
X138428571Y-97354819D02*
X137857143Y-97354819D01*
X138142857Y-97354819D02*
X138142857Y-96354819D01*
X138142857Y-96354819D02*
X138047619Y-96497676D01*
X138047619Y-96497676D02*
X137952381Y-96592914D01*
X137952381Y-96592914D02*
X137857143Y-96640533D01*
X139047619Y-96354819D02*
X139142857Y-96354819D01*
X139142857Y-96354819D02*
X139238095Y-96402438D01*
X139238095Y-96402438D02*
X139285714Y-96450057D01*
X139285714Y-96450057D02*
X139333333Y-96545295D01*
X139333333Y-96545295D02*
X139380952Y-96735771D01*
X139380952Y-96735771D02*
X139380952Y-96973866D01*
X139380952Y-96973866D02*
X139333333Y-97164342D01*
X139333333Y-97164342D02*
X139285714Y-97259580D01*
X139285714Y-97259580D02*
X139238095Y-97307200D01*
X139238095Y-97307200D02*
X139142857Y-97354819D01*
X139142857Y-97354819D02*
X139047619Y-97354819D01*
X139047619Y-97354819D02*
X138952381Y-97307200D01*
X138952381Y-97307200D02*
X138904762Y-97259580D01*
X138904762Y-97259580D02*
X138857143Y-97164342D01*
X138857143Y-97164342D02*
X138809524Y-96973866D01*
X138809524Y-96973866D02*
X138809524Y-96735771D01*
X138809524Y-96735771D02*
X138857143Y-96545295D01*
X138857143Y-96545295D02*
X138904762Y-96450057D01*
X138904762Y-96450057D02*
X138952381Y-96402438D01*
X138952381Y-96402438D02*
X139047619Y-96354819D01*
X140238095Y-96688152D02*
X140238095Y-97354819D01*
X139809524Y-96688152D02*
X139809524Y-97211961D01*
X139809524Y-97211961D02*
X139857143Y-97307200D01*
X139857143Y-97307200D02*
X139952381Y-97354819D01*
X139952381Y-97354819D02*
X140095238Y-97354819D01*
X140095238Y-97354819D02*
X140190476Y-97307200D01*
X140190476Y-97307200D02*
X140238095Y-97259580D01*
X141047619Y-96831009D02*
X140714286Y-96831009D01*
X140714286Y-97354819D02*
X140714286Y-96354819D01*
X140714286Y-96354819D02*
X141190476Y-96354819D01*
D11*
X139383333Y-95251706D02*
X139350000Y-95285040D01*
X139350000Y-95285040D02*
X139250000Y-95318373D01*
X139250000Y-95318373D02*
X139183333Y-95318373D01*
X139183333Y-95318373D02*
X139083333Y-95285040D01*
X139083333Y-95285040D02*
X139016667Y-95218373D01*
X139016667Y-95218373D02*
X138983333Y-95151706D01*
X138983333Y-95151706D02*
X138950000Y-95018373D01*
X138950000Y-95018373D02*
X138950000Y-94918373D01*
X138950000Y-94918373D02*
X138983333Y-94785040D01*
X138983333Y-94785040D02*
X139016667Y-94718373D01*
X139016667Y-94718373D02*
X139083333Y-94651706D01*
X139083333Y-94651706D02*
X139183333Y-94618373D01*
X139183333Y-94618373D02*
X139250000Y-94618373D01*
X139250000Y-94618373D02*
X139350000Y-94651706D01*
X139350000Y-94651706D02*
X139383333Y-94685040D01*
X139983333Y-94851706D02*
X139983333Y-95318373D01*
X139816667Y-94585040D02*
X139650000Y-95085040D01*
X139650000Y-95085040D02*
X140083333Y-95085040D01*
D10*
X132607142Y-88654819D02*
X132416666Y-88654819D01*
X132416666Y-88654819D02*
X132321428Y-88702438D01*
X132321428Y-88702438D02*
X132273809Y-88750057D01*
X132273809Y-88750057D02*
X132178571Y-88892914D01*
X132178571Y-88892914D02*
X132130952Y-89083390D01*
X132130952Y-89083390D02*
X132130952Y-89464342D01*
X132130952Y-89464342D02*
X132178571Y-89559580D01*
X132178571Y-89559580D02*
X132226190Y-89607200D01*
X132226190Y-89607200D02*
X132321428Y-89654819D01*
X132321428Y-89654819D02*
X132511904Y-89654819D01*
X132511904Y-89654819D02*
X132607142Y-89607200D01*
X132607142Y-89607200D02*
X132654761Y-89559580D01*
X132654761Y-89559580D02*
X132702380Y-89464342D01*
X132702380Y-89464342D02*
X132702380Y-89226247D01*
X132702380Y-89226247D02*
X132654761Y-89131009D01*
X132654761Y-89131009D02*
X132607142Y-89083390D01*
X132607142Y-89083390D02*
X132511904Y-89035771D01*
X132511904Y-89035771D02*
X132321428Y-89035771D01*
X132321428Y-89035771D02*
X132226190Y-89083390D01*
X132226190Y-89083390D02*
X132178571Y-89131009D01*
X132178571Y-89131009D02*
X132130952Y-89226247D01*
X133321428Y-88654819D02*
X133416666Y-88654819D01*
X133416666Y-88654819D02*
X133511904Y-88702438D01*
X133511904Y-88702438D02*
X133559523Y-88750057D01*
X133559523Y-88750057D02*
X133607142Y-88845295D01*
X133607142Y-88845295D02*
X133654761Y-89035771D01*
X133654761Y-89035771D02*
X133654761Y-89273866D01*
X133654761Y-89273866D02*
X133607142Y-89464342D01*
X133607142Y-89464342D02*
X133559523Y-89559580D01*
X133559523Y-89559580D02*
X133511904Y-89607200D01*
X133511904Y-89607200D02*
X133416666Y-89654819D01*
X133416666Y-89654819D02*
X133321428Y-89654819D01*
X133321428Y-89654819D02*
X133226190Y-89607200D01*
X133226190Y-89607200D02*
X133178571Y-89559580D01*
X133178571Y-89559580D02*
X133130952Y-89464342D01*
X133130952Y-89464342D02*
X133083333Y-89273866D01*
X133083333Y-89273866D02*
X133083333Y-89035771D01*
X133083333Y-89035771D02*
X133130952Y-88845295D01*
X133130952Y-88845295D02*
X133178571Y-88750057D01*
X133178571Y-88750057D02*
X133226190Y-88702438D01*
X133226190Y-88702438D02*
X133321428Y-88654819D01*
X133940476Y-88654819D02*
X134273809Y-89654819D01*
X134273809Y-89654819D02*
X134607142Y-88654819D01*
X135654761Y-88607200D02*
X134797619Y-89892914D01*
X136511904Y-89654819D02*
X135940476Y-89654819D01*
X136226190Y-89654819D02*
X136226190Y-88654819D01*
X136226190Y-88654819D02*
X136130952Y-88797676D01*
X136130952Y-88797676D02*
X136035714Y-88892914D01*
X136035714Y-88892914D02*
X135940476Y-88940533D01*
X136892857Y-89369104D02*
X137369047Y-89369104D01*
X136797619Y-89654819D02*
X137130952Y-88654819D01*
X137130952Y-88654819D02*
X137464285Y-89654819D01*
D11*
X134233333Y-87818373D02*
X134233333Y-87118373D01*
X134233333Y-87118373D02*
X134400000Y-87118373D01*
X134400000Y-87118373D02*
X134500000Y-87151706D01*
X134500000Y-87151706D02*
X134566667Y-87218373D01*
X134566667Y-87218373D02*
X134600000Y-87285040D01*
X134600000Y-87285040D02*
X134633333Y-87418373D01*
X134633333Y-87418373D02*
X134633333Y-87518373D01*
X134633333Y-87518373D02*
X134600000Y-87651706D01*
X134600000Y-87651706D02*
X134566667Y-87718373D01*
X134566667Y-87718373D02*
X134500000Y-87785040D01*
X134500000Y-87785040D02*
X134400000Y-87818373D01*
X134400000Y-87818373D02*
X134233333Y-87818373D01*
X134900000Y-87185040D02*
X134933333Y-87151706D01*
X134933333Y-87151706D02*
X135000000Y-87118373D01*
X135000000Y-87118373D02*
X135166667Y-87118373D01*
X135166667Y-87118373D02*
X135233333Y-87151706D01*
X135233333Y-87151706D02*
X135266667Y-87185040D01*
X135266667Y-87185040D02*
X135300000Y-87251706D01*
X135300000Y-87251706D02*
X135300000Y-87318373D01*
X135300000Y-87318373D02*
X135266667Y-87418373D01*
X135266667Y-87418373D02*
X134866667Y-87818373D01*
X134866667Y-87818373D02*
X135300000Y-87818373D01*
D10*
X144454819Y-107980952D02*
X144454819Y-108552380D01*
X144454819Y-108266666D02*
X143454819Y-108266666D01*
X143454819Y-108266666D02*
X143597676Y-108361904D01*
X143597676Y-108361904D02*
X143692914Y-108457142D01*
X143692914Y-108457142D02*
X143740533Y-108552380D01*
X144454819Y-107552380D02*
X143454819Y-107552380D01*
X143454819Y-107552380D02*
X144454819Y-106980952D01*
X144454819Y-106980952D02*
X143454819Y-106980952D01*
X143788152Y-106076190D02*
X144454819Y-106076190D01*
X143407200Y-106314285D02*
X144121485Y-106552380D01*
X144121485Y-106552380D02*
X144121485Y-105933333D01*
X143454819Y-105361904D02*
X143454819Y-105266666D01*
X143454819Y-105266666D02*
X143502438Y-105171428D01*
X143502438Y-105171428D02*
X143550057Y-105123809D01*
X143550057Y-105123809D02*
X143645295Y-105076190D01*
X143645295Y-105076190D02*
X143835771Y-105028571D01*
X143835771Y-105028571D02*
X144073866Y-105028571D01*
X144073866Y-105028571D02*
X144264342Y-105076190D01*
X144264342Y-105076190D02*
X144359580Y-105123809D01*
X144359580Y-105123809D02*
X144407200Y-105171428D01*
X144407200Y-105171428D02*
X144454819Y-105266666D01*
X144454819Y-105266666D02*
X144454819Y-105361904D01*
X144454819Y-105361904D02*
X144407200Y-105457142D01*
X144407200Y-105457142D02*
X144359580Y-105504761D01*
X144359580Y-105504761D02*
X144264342Y-105552380D01*
X144264342Y-105552380D02*
X144073866Y-105599999D01*
X144073866Y-105599999D02*
X143835771Y-105599999D01*
X143835771Y-105599999D02*
X143645295Y-105552380D01*
X143645295Y-105552380D02*
X143550057Y-105504761D01*
X143550057Y-105504761D02*
X143502438Y-105457142D01*
X143502438Y-105457142D02*
X143454819Y-105361904D01*
X143454819Y-104409523D02*
X143454819Y-104314285D01*
X143454819Y-104314285D02*
X143502438Y-104219047D01*
X143502438Y-104219047D02*
X143550057Y-104171428D01*
X143550057Y-104171428D02*
X143645295Y-104123809D01*
X143645295Y-104123809D02*
X143835771Y-104076190D01*
X143835771Y-104076190D02*
X144073866Y-104076190D01*
X144073866Y-104076190D02*
X144264342Y-104123809D01*
X144264342Y-104123809D02*
X144359580Y-104171428D01*
X144359580Y-104171428D02*
X144407200Y-104219047D01*
X144407200Y-104219047D02*
X144454819Y-104314285D01*
X144454819Y-104314285D02*
X144454819Y-104409523D01*
X144454819Y-104409523D02*
X144407200Y-104504761D01*
X144407200Y-104504761D02*
X144359580Y-104552380D01*
X144359580Y-104552380D02*
X144264342Y-104599999D01*
X144264342Y-104599999D02*
X144073866Y-104647618D01*
X144073866Y-104647618D02*
X143835771Y-104647618D01*
X143835771Y-104647618D02*
X143645295Y-104599999D01*
X143645295Y-104599999D02*
X143550057Y-104552380D01*
X143550057Y-104552380D02*
X143502438Y-104504761D01*
X143502438Y-104504761D02*
X143454819Y-104409523D01*
X143454819Y-103742856D02*
X143454819Y-103076190D01*
X143454819Y-103076190D02*
X144454819Y-103504761D01*
X144550057Y-102933333D02*
X144550057Y-102171428D01*
X144359580Y-101361904D02*
X144407200Y-101409523D01*
X144407200Y-101409523D02*
X144454819Y-101552380D01*
X144454819Y-101552380D02*
X144454819Y-101647618D01*
X144454819Y-101647618D02*
X144407200Y-101790475D01*
X144407200Y-101790475D02*
X144311961Y-101885713D01*
X144311961Y-101885713D02*
X144216723Y-101933332D01*
X144216723Y-101933332D02*
X144026247Y-101980951D01*
X144026247Y-101980951D02*
X143883390Y-101980951D01*
X143883390Y-101980951D02*
X143692914Y-101933332D01*
X143692914Y-101933332D02*
X143597676Y-101885713D01*
X143597676Y-101885713D02*
X143502438Y-101790475D01*
X143502438Y-101790475D02*
X143454819Y-101647618D01*
X143454819Y-101647618D02*
X143454819Y-101552380D01*
X143454819Y-101552380D02*
X143502438Y-101409523D01*
X143502438Y-101409523D02*
X143550057Y-101361904D01*
X143454819Y-101028570D02*
X143454819Y-100361904D01*
X143454819Y-100361904D02*
X144454819Y-100790475D01*
X143550057Y-100028570D02*
X143502438Y-99980951D01*
X143502438Y-99980951D02*
X143454819Y-99885713D01*
X143454819Y-99885713D02*
X143454819Y-99647618D01*
X143454819Y-99647618D02*
X143502438Y-99552380D01*
X143502438Y-99552380D02*
X143550057Y-99504761D01*
X143550057Y-99504761D02*
X143645295Y-99457142D01*
X143645295Y-99457142D02*
X143740533Y-99457142D01*
X143740533Y-99457142D02*
X143883390Y-99504761D01*
X143883390Y-99504761D02*
X144454819Y-100076189D01*
X144454819Y-100076189D02*
X144454819Y-99457142D01*
X143454819Y-99123808D02*
X143454819Y-98457142D01*
X143454819Y-98457142D02*
X144454819Y-98885713D01*
X143454819Y-97885713D02*
X143454819Y-97790475D01*
X143454819Y-97790475D02*
X143502438Y-97695237D01*
X143502438Y-97695237D02*
X143550057Y-97647618D01*
X143550057Y-97647618D02*
X143645295Y-97599999D01*
X143645295Y-97599999D02*
X143835771Y-97552380D01*
X143835771Y-97552380D02*
X144073866Y-97552380D01*
X144073866Y-97552380D02*
X144264342Y-97599999D01*
X144264342Y-97599999D02*
X144359580Y-97647618D01*
X144359580Y-97647618D02*
X144407200Y-97695237D01*
X144407200Y-97695237D02*
X144454819Y-97790475D01*
X144454819Y-97790475D02*
X144454819Y-97885713D01*
X144454819Y-97885713D02*
X144407200Y-97980951D01*
X144407200Y-97980951D02*
X144359580Y-98028570D01*
X144359580Y-98028570D02*
X144264342Y-98076189D01*
X144264342Y-98076189D02*
X144073866Y-98123808D01*
X144073866Y-98123808D02*
X143835771Y-98123808D01*
X143835771Y-98123808D02*
X143645295Y-98076189D01*
X143645295Y-98076189D02*
X143550057Y-98028570D01*
X143550057Y-98028570D02*
X143502438Y-97980951D01*
X143502438Y-97980951D02*
X143454819Y-97885713D01*
X143883390Y-96980951D02*
X143835771Y-97076189D01*
X143835771Y-97076189D02*
X143788152Y-97123808D01*
X143788152Y-97123808D02*
X143692914Y-97171427D01*
X143692914Y-97171427D02*
X143645295Y-97171427D01*
X143645295Y-97171427D02*
X143550057Y-97123808D01*
X143550057Y-97123808D02*
X143502438Y-97076189D01*
X143502438Y-97076189D02*
X143454819Y-96980951D01*
X143454819Y-96980951D02*
X143454819Y-96790475D01*
X143454819Y-96790475D02*
X143502438Y-96695237D01*
X143502438Y-96695237D02*
X143550057Y-96647618D01*
X143550057Y-96647618D02*
X143645295Y-96599999D01*
X143645295Y-96599999D02*
X143692914Y-96599999D01*
X143692914Y-96599999D02*
X143788152Y-96647618D01*
X143788152Y-96647618D02*
X143835771Y-96695237D01*
X143835771Y-96695237D02*
X143883390Y-96790475D01*
X143883390Y-96790475D02*
X143883390Y-96980951D01*
X143883390Y-96980951D02*
X143931009Y-97076189D01*
X143931009Y-97076189D02*
X143978628Y-97123808D01*
X143978628Y-97123808D02*
X144073866Y-97171427D01*
X144073866Y-97171427D02*
X144264342Y-97171427D01*
X144264342Y-97171427D02*
X144359580Y-97123808D01*
X144359580Y-97123808D02*
X144407200Y-97076189D01*
X144407200Y-97076189D02*
X144454819Y-96980951D01*
X144454819Y-96980951D02*
X144454819Y-96790475D01*
X144454819Y-96790475D02*
X144407200Y-96695237D01*
X144407200Y-96695237D02*
X144359580Y-96647618D01*
X144359580Y-96647618D02*
X144264342Y-96599999D01*
X144264342Y-96599999D02*
X144073866Y-96599999D01*
X144073866Y-96599999D02*
X143978628Y-96647618D01*
X143978628Y-96647618D02*
X143931009Y-96695237D01*
X143931009Y-96695237D02*
X143883390Y-96790475D01*
X144454819Y-95647618D02*
X144454819Y-96219046D01*
X144454819Y-95933332D02*
X143454819Y-95933332D01*
X143454819Y-95933332D02*
X143597676Y-96028570D01*
X143597676Y-96028570D02*
X143692914Y-96123808D01*
X143692914Y-96123808D02*
X143740533Y-96219046D01*
X148454819Y-102838094D02*
X147454819Y-102838094D01*
X147454819Y-102838094D02*
X147454819Y-102599999D01*
X147454819Y-102599999D02*
X147502438Y-102457142D01*
X147502438Y-102457142D02*
X147597676Y-102361904D01*
X147597676Y-102361904D02*
X147692914Y-102314285D01*
X147692914Y-102314285D02*
X147883390Y-102266666D01*
X147883390Y-102266666D02*
X148026247Y-102266666D01*
X148026247Y-102266666D02*
X148216723Y-102314285D01*
X148216723Y-102314285D02*
X148311961Y-102361904D01*
X148311961Y-102361904D02*
X148407200Y-102457142D01*
X148407200Y-102457142D02*
X148454819Y-102599999D01*
X148454819Y-102599999D02*
X148454819Y-102838094D01*
X147454819Y-101933332D02*
X147454819Y-101314285D01*
X147454819Y-101314285D02*
X147835771Y-101647618D01*
X147835771Y-101647618D02*
X147835771Y-101504761D01*
X147835771Y-101504761D02*
X147883390Y-101409523D01*
X147883390Y-101409523D02*
X147931009Y-101361904D01*
X147931009Y-101361904D02*
X148026247Y-101314285D01*
X148026247Y-101314285D02*
X148264342Y-101314285D01*
X148264342Y-101314285D02*
X148359580Y-101361904D01*
X148359580Y-101361904D02*
X148407200Y-101409523D01*
X148407200Y-101409523D02*
X148454819Y-101504761D01*
X148454819Y-101504761D02*
X148454819Y-101790475D01*
X148454819Y-101790475D02*
X148407200Y-101885713D01*
X148407200Y-101885713D02*
X148359580Y-101933332D01*
X157880952Y-100407200D02*
X158023809Y-100454819D01*
X158023809Y-100454819D02*
X158261904Y-100454819D01*
X158261904Y-100454819D02*
X158357142Y-100407200D01*
X158357142Y-100407200D02*
X158404761Y-100359580D01*
X158404761Y-100359580D02*
X158452380Y-100264342D01*
X158452380Y-100264342D02*
X158452380Y-100169104D01*
X158452380Y-100169104D02*
X158404761Y-100073866D01*
X158404761Y-100073866D02*
X158357142Y-100026247D01*
X158357142Y-100026247D02*
X158261904Y-99978628D01*
X158261904Y-99978628D02*
X158071428Y-99931009D01*
X158071428Y-99931009D02*
X157976190Y-99883390D01*
X157976190Y-99883390D02*
X157928571Y-99835771D01*
X157928571Y-99835771D02*
X157880952Y-99740533D01*
X157880952Y-99740533D02*
X157880952Y-99645295D01*
X157880952Y-99645295D02*
X157928571Y-99550057D01*
X157928571Y-99550057D02*
X157976190Y-99502438D01*
X157976190Y-99502438D02*
X158071428Y-99454819D01*
X158071428Y-99454819D02*
X158309523Y-99454819D01*
X158309523Y-99454819D02*
X158452380Y-99502438D01*
X158880952Y-100454819D02*
X158880952Y-99454819D01*
X158880952Y-99454819D02*
X159214285Y-100169104D01*
X159214285Y-100169104D02*
X159547618Y-99454819D01*
X159547618Y-99454819D02*
X159547618Y-100454819D01*
X159928571Y-99454819D02*
X160166666Y-100454819D01*
X160166666Y-100454819D02*
X160357142Y-99740533D01*
X160357142Y-99740533D02*
X160547618Y-100454819D01*
X160547618Y-100454819D02*
X160785714Y-99454819D01*
X161642856Y-99454819D02*
X161166666Y-99454819D01*
X161166666Y-99454819D02*
X161119047Y-99931009D01*
X161119047Y-99931009D02*
X161166666Y-99883390D01*
X161166666Y-99883390D02*
X161261904Y-99835771D01*
X161261904Y-99835771D02*
X161499999Y-99835771D01*
X161499999Y-99835771D02*
X161595237Y-99883390D01*
X161595237Y-99883390D02*
X161642856Y-99931009D01*
X161642856Y-99931009D02*
X161690475Y-100026247D01*
X161690475Y-100026247D02*
X161690475Y-100264342D01*
X161690475Y-100264342D02*
X161642856Y-100359580D01*
X161642856Y-100359580D02*
X161595237Y-100407200D01*
X161595237Y-100407200D02*
X161499999Y-100454819D01*
X161499999Y-100454819D02*
X161261904Y-100454819D01*
X161261904Y-100454819D02*
X161166666Y-100407200D01*
X161166666Y-100407200D02*
X161119047Y-100359580D01*
X162642856Y-100454819D02*
X162071428Y-100454819D01*
X162357142Y-100454819D02*
X162357142Y-99454819D01*
X162357142Y-99454819D02*
X162261904Y-99597676D01*
X162261904Y-99597676D02*
X162166666Y-99692914D01*
X162166666Y-99692914D02*
X162071428Y-99740533D01*
X163261904Y-99454819D02*
X163357142Y-99454819D01*
X163357142Y-99454819D02*
X163452380Y-99502438D01*
X163452380Y-99502438D02*
X163499999Y-99550057D01*
X163499999Y-99550057D02*
X163547618Y-99645295D01*
X163547618Y-99645295D02*
X163595237Y-99835771D01*
X163595237Y-99835771D02*
X163595237Y-100073866D01*
X163595237Y-100073866D02*
X163547618Y-100264342D01*
X163547618Y-100264342D02*
X163499999Y-100359580D01*
X163499999Y-100359580D02*
X163452380Y-100407200D01*
X163452380Y-100407200D02*
X163357142Y-100454819D01*
X163357142Y-100454819D02*
X163261904Y-100454819D01*
X163261904Y-100454819D02*
X163166666Y-100407200D01*
X163166666Y-100407200D02*
X163119047Y-100359580D01*
X163119047Y-100359580D02*
X163071428Y-100264342D01*
X163071428Y-100264342D02*
X163023809Y-100073866D01*
X163023809Y-100073866D02*
X163023809Y-99835771D01*
X163023809Y-99835771D02*
X163071428Y-99645295D01*
X163071428Y-99645295D02*
X163119047Y-99550057D01*
X163119047Y-99550057D02*
X163166666Y-99502438D01*
X163166666Y-99502438D02*
X163261904Y-99454819D01*
X164595237Y-100454819D02*
X164261904Y-99978628D01*
X164023809Y-100454819D02*
X164023809Y-99454819D01*
X164023809Y-99454819D02*
X164404761Y-99454819D01*
X164404761Y-99454819D02*
X164499999Y-99502438D01*
X164499999Y-99502438D02*
X164547618Y-99550057D01*
X164547618Y-99550057D02*
X164595237Y-99645295D01*
X164595237Y-99645295D02*
X164595237Y-99788152D01*
X164595237Y-99788152D02*
X164547618Y-99883390D01*
X164547618Y-99883390D02*
X164499999Y-99931009D01*
X164499999Y-99931009D02*
X164404761Y-99978628D01*
X164404761Y-99978628D02*
X164023809Y-99978628D01*
X165309523Y-99454819D02*
X165309523Y-100169104D01*
X165309523Y-100169104D02*
X165261904Y-100311961D01*
X165261904Y-100311961D02*
X165166666Y-100407200D01*
X165166666Y-100407200D02*
X165023809Y-100454819D01*
X165023809Y-100454819D02*
X164928571Y-100454819D01*
X165642857Y-99454819D02*
X166214285Y-99454819D01*
X165928571Y-100454819D02*
X165928571Y-99454819D01*
X161833333Y-104454819D02*
X161500000Y-103978628D01*
X161261905Y-104454819D02*
X161261905Y-103454819D01*
X161261905Y-103454819D02*
X161642857Y-103454819D01*
X161642857Y-103454819D02*
X161738095Y-103502438D01*
X161738095Y-103502438D02*
X161785714Y-103550057D01*
X161785714Y-103550057D02*
X161833333Y-103645295D01*
X161833333Y-103645295D02*
X161833333Y-103788152D01*
X161833333Y-103788152D02*
X161785714Y-103883390D01*
X161785714Y-103883390D02*
X161738095Y-103931009D01*
X161738095Y-103931009D02*
X161642857Y-103978628D01*
X161642857Y-103978628D02*
X161261905Y-103978628D01*
X162166667Y-103454819D02*
X162785714Y-103454819D01*
X162785714Y-103454819D02*
X162452381Y-103835771D01*
X162452381Y-103835771D02*
X162595238Y-103835771D01*
X162595238Y-103835771D02*
X162690476Y-103883390D01*
X162690476Y-103883390D02*
X162738095Y-103931009D01*
X162738095Y-103931009D02*
X162785714Y-104026247D01*
X162785714Y-104026247D02*
X162785714Y-104264342D01*
X162785714Y-104264342D02*
X162738095Y-104359580D01*
X162738095Y-104359580D02*
X162690476Y-104407200D01*
X162690476Y-104407200D02*
X162595238Y-104454819D01*
X162595238Y-104454819D02*
X162309524Y-104454819D01*
X162309524Y-104454819D02*
X162214286Y-104407200D01*
X162214286Y-104407200D02*
X162166667Y-104359580D01*
X150928571Y-102554819D02*
X150357143Y-102554819D01*
X150642857Y-102554819D02*
X150642857Y-101554819D01*
X150642857Y-101554819D02*
X150547619Y-101697676D01*
X150547619Y-101697676D02*
X150452381Y-101792914D01*
X150452381Y-101792914D02*
X150357143Y-101840533D01*
X151547619Y-101554819D02*
X151642857Y-101554819D01*
X151642857Y-101554819D02*
X151738095Y-101602438D01*
X151738095Y-101602438D02*
X151785714Y-101650057D01*
X151785714Y-101650057D02*
X151833333Y-101745295D01*
X151833333Y-101745295D02*
X151880952Y-101935771D01*
X151880952Y-101935771D02*
X151880952Y-102173866D01*
X151880952Y-102173866D02*
X151833333Y-102364342D01*
X151833333Y-102364342D02*
X151785714Y-102459580D01*
X151785714Y-102459580D02*
X151738095Y-102507200D01*
X151738095Y-102507200D02*
X151642857Y-102554819D01*
X151642857Y-102554819D02*
X151547619Y-102554819D01*
X151547619Y-102554819D02*
X151452381Y-102507200D01*
X151452381Y-102507200D02*
X151404762Y-102459580D01*
X151404762Y-102459580D02*
X151357143Y-102364342D01*
X151357143Y-102364342D02*
X151309524Y-102173866D01*
X151309524Y-102173866D02*
X151309524Y-101935771D01*
X151309524Y-101935771D02*
X151357143Y-101745295D01*
X151357143Y-101745295D02*
X151404762Y-101650057D01*
X151404762Y-101650057D02*
X151452381Y-101602438D01*
X151452381Y-101602438D02*
X151547619Y-101554819D01*
X152738095Y-101888152D02*
X152738095Y-102554819D01*
X152309524Y-101888152D02*
X152309524Y-102411961D01*
X152309524Y-102411961D02*
X152357143Y-102507200D01*
X152357143Y-102507200D02*
X152452381Y-102554819D01*
X152452381Y-102554819D02*
X152595238Y-102554819D01*
X152595238Y-102554819D02*
X152690476Y-102507200D01*
X152690476Y-102507200D02*
X152738095Y-102459580D01*
X153547619Y-102031009D02*
X153214286Y-102031009D01*
X153214286Y-102554819D02*
X153214286Y-101554819D01*
X153214286Y-101554819D02*
X153690476Y-101554819D01*
D11*
X151883333Y-104251706D02*
X151850000Y-104285040D01*
X151850000Y-104285040D02*
X151750000Y-104318373D01*
X151750000Y-104318373D02*
X151683333Y-104318373D01*
X151683333Y-104318373D02*
X151583333Y-104285040D01*
X151583333Y-104285040D02*
X151516667Y-104218373D01*
X151516667Y-104218373D02*
X151483333Y-104151706D01*
X151483333Y-104151706D02*
X151450000Y-104018373D01*
X151450000Y-104018373D02*
X151450000Y-103918373D01*
X151450000Y-103918373D02*
X151483333Y-103785040D01*
X151483333Y-103785040D02*
X151516667Y-103718373D01*
X151516667Y-103718373D02*
X151583333Y-103651706D01*
X151583333Y-103651706D02*
X151683333Y-103618373D01*
X151683333Y-103618373D02*
X151750000Y-103618373D01*
X151750000Y-103618373D02*
X151850000Y-103651706D01*
X151850000Y-103651706D02*
X151883333Y-103685040D01*
X152116667Y-103618373D02*
X152550000Y-103618373D01*
X152550000Y-103618373D02*
X152316667Y-103885040D01*
X152316667Y-103885040D02*
X152416667Y-103885040D01*
X152416667Y-103885040D02*
X152483333Y-103918373D01*
X152483333Y-103918373D02*
X152516667Y-103951706D01*
X152516667Y-103951706D02*
X152550000Y-104018373D01*
X152550000Y-104018373D02*
X152550000Y-104185040D01*
X152550000Y-104185040D02*
X152516667Y-104251706D01*
X152516667Y-104251706D02*
X152483333Y-104285040D01*
X152483333Y-104285040D02*
X152416667Y-104318373D01*
X152416667Y-104318373D02*
X152216667Y-104318373D01*
X152216667Y-104318373D02*
X152150000Y-104285040D01*
X152150000Y-104285040D02*
X152116667Y-104251706D01*
D10*
X136730952Y-105450057D02*
X136778571Y-105402438D01*
X136778571Y-105402438D02*
X136873809Y-105354819D01*
X136873809Y-105354819D02*
X137111904Y-105354819D01*
X137111904Y-105354819D02*
X137207142Y-105402438D01*
X137207142Y-105402438D02*
X137254761Y-105450057D01*
X137254761Y-105450057D02*
X137302380Y-105545295D01*
X137302380Y-105545295D02*
X137302380Y-105640533D01*
X137302380Y-105640533D02*
X137254761Y-105783390D01*
X137254761Y-105783390D02*
X136683333Y-106354819D01*
X136683333Y-106354819D02*
X137302380Y-106354819D01*
X137683333Y-105450057D02*
X137730952Y-105402438D01*
X137730952Y-105402438D02*
X137826190Y-105354819D01*
X137826190Y-105354819D02*
X138064285Y-105354819D01*
X138064285Y-105354819D02*
X138159523Y-105402438D01*
X138159523Y-105402438D02*
X138207142Y-105450057D01*
X138207142Y-105450057D02*
X138254761Y-105545295D01*
X138254761Y-105545295D02*
X138254761Y-105640533D01*
X138254761Y-105640533D02*
X138207142Y-105783390D01*
X138207142Y-105783390D02*
X137635714Y-106354819D01*
X137635714Y-106354819D02*
X138254761Y-106354819D01*
X138873809Y-105354819D02*
X138969047Y-105354819D01*
X138969047Y-105354819D02*
X139064285Y-105402438D01*
X139064285Y-105402438D02*
X139111904Y-105450057D01*
X139111904Y-105450057D02*
X139159523Y-105545295D01*
X139159523Y-105545295D02*
X139207142Y-105735771D01*
X139207142Y-105735771D02*
X139207142Y-105973866D01*
X139207142Y-105973866D02*
X139159523Y-106164342D01*
X139159523Y-106164342D02*
X139111904Y-106259580D01*
X139111904Y-106259580D02*
X139064285Y-106307200D01*
X139064285Y-106307200D02*
X138969047Y-106354819D01*
X138969047Y-106354819D02*
X138873809Y-106354819D01*
X138873809Y-106354819D02*
X138778571Y-106307200D01*
X138778571Y-106307200D02*
X138730952Y-106259580D01*
X138730952Y-106259580D02*
X138683333Y-106164342D01*
X138683333Y-106164342D02*
X138635714Y-105973866D01*
X138635714Y-105973866D02*
X138635714Y-105735771D01*
X138635714Y-105735771D02*
X138683333Y-105545295D01*
X138683333Y-105545295D02*
X138730952Y-105450057D01*
X138730952Y-105450057D02*
X138778571Y-105402438D01*
X138778571Y-105402438D02*
X138873809Y-105354819D01*
X139635714Y-105688152D02*
X139635714Y-106354819D01*
X139635714Y-105783390D02*
X139683333Y-105735771D01*
X139683333Y-105735771D02*
X139778571Y-105688152D01*
X139778571Y-105688152D02*
X139921428Y-105688152D01*
X139921428Y-105688152D02*
X140016666Y-105735771D01*
X140016666Y-105735771D02*
X140064285Y-105831009D01*
X140064285Y-105831009D02*
X140064285Y-106354819D01*
X140873809Y-105831009D02*
X140540476Y-105831009D01*
X140540476Y-106354819D02*
X140540476Y-105354819D01*
X140540476Y-105354819D02*
X141016666Y-105354819D01*
D11*
X138733333Y-104251706D02*
X138700000Y-104285040D01*
X138700000Y-104285040D02*
X138600000Y-104318373D01*
X138600000Y-104318373D02*
X138533333Y-104318373D01*
X138533333Y-104318373D02*
X138433333Y-104285040D01*
X138433333Y-104285040D02*
X138366667Y-104218373D01*
X138366667Y-104218373D02*
X138333333Y-104151706D01*
X138333333Y-104151706D02*
X138300000Y-104018373D01*
X138300000Y-104018373D02*
X138300000Y-103918373D01*
X138300000Y-103918373D02*
X138333333Y-103785040D01*
X138333333Y-103785040D02*
X138366667Y-103718373D01*
X138366667Y-103718373D02*
X138433333Y-103651706D01*
X138433333Y-103651706D02*
X138533333Y-103618373D01*
X138533333Y-103618373D02*
X138600000Y-103618373D01*
X138600000Y-103618373D02*
X138700000Y-103651706D01*
X138700000Y-103651706D02*
X138733333Y-103685040D01*
X139400000Y-104318373D02*
X139000000Y-104318373D01*
X139200000Y-104318373D02*
X139200000Y-103618373D01*
X139200000Y-103618373D02*
X139133333Y-103718373D01*
X139133333Y-103718373D02*
X139066667Y-103785040D01*
X139066667Y-103785040D02*
X139000000Y-103818373D01*
D12*
X147714204Y-85866665D02*
X147714204Y-86033332D01*
X147976109Y-86033332D02*
X147476109Y-86033332D01*
X147476109Y-86033332D02*
X147476109Y-85795237D01*
X147976109Y-85342856D02*
X147976109Y-85628570D01*
X147976109Y-85485713D02*
X147476109Y-85485713D01*
X147476109Y-85485713D02*
X147547538Y-85533332D01*
X147547538Y-85533332D02*
X147595157Y-85580951D01*
X147595157Y-85580951D02*
X147618966Y-85628570D01*
X156214204Y-87509522D02*
X156238014Y-87438094D01*
X156238014Y-87438094D02*
X156261823Y-87414284D01*
X156261823Y-87414284D02*
X156309442Y-87390475D01*
X156309442Y-87390475D02*
X156380871Y-87390475D01*
X156380871Y-87390475D02*
X156428490Y-87414284D01*
X156428490Y-87414284D02*
X156452300Y-87438094D01*
X156452300Y-87438094D02*
X156476109Y-87485713D01*
X156476109Y-87485713D02*
X156476109Y-87676189D01*
X156476109Y-87676189D02*
X155976109Y-87676189D01*
X155976109Y-87676189D02*
X155976109Y-87509522D01*
X155976109Y-87509522D02*
X155999919Y-87461903D01*
X155999919Y-87461903D02*
X156023728Y-87438094D01*
X156023728Y-87438094D02*
X156071347Y-87414284D01*
X156071347Y-87414284D02*
X156118966Y-87414284D01*
X156118966Y-87414284D02*
X156166585Y-87438094D01*
X156166585Y-87438094D02*
X156190395Y-87461903D01*
X156190395Y-87461903D02*
X156214204Y-87509522D01*
X156214204Y-87509522D02*
X156214204Y-87676189D01*
X156476109Y-87104760D02*
X156452300Y-87152379D01*
X156452300Y-87152379D02*
X156404680Y-87176189D01*
X156404680Y-87176189D02*
X155976109Y-87176189D01*
X156476109Y-86699998D02*
X156214204Y-86699998D01*
X156214204Y-86699998D02*
X156166585Y-86723808D01*
X156166585Y-86723808D02*
X156142776Y-86771427D01*
X156142776Y-86771427D02*
X156142776Y-86866665D01*
X156142776Y-86866665D02*
X156166585Y-86914284D01*
X156452300Y-86699998D02*
X156476109Y-86747617D01*
X156476109Y-86747617D02*
X156476109Y-86866665D01*
X156476109Y-86866665D02*
X156452300Y-86914284D01*
X156452300Y-86914284D02*
X156404680Y-86938093D01*
X156404680Y-86938093D02*
X156357061Y-86938093D01*
X156357061Y-86938093D02*
X156309442Y-86914284D01*
X156309442Y-86914284D02*
X156285633Y-86866665D01*
X156285633Y-86866665D02*
X156285633Y-86747617D01*
X156285633Y-86747617D02*
X156261823Y-86699998D01*
X156476109Y-86247617D02*
X155976109Y-86247617D01*
X156452300Y-86247617D02*
X156476109Y-86295236D01*
X156476109Y-86295236D02*
X156476109Y-86390474D01*
X156476109Y-86390474D02*
X156452300Y-86438093D01*
X156452300Y-86438093D02*
X156428490Y-86461903D01*
X156428490Y-86461903D02*
X156380871Y-86485712D01*
X156380871Y-86485712D02*
X156238014Y-86485712D01*
X156238014Y-86485712D02*
X156190395Y-86461903D01*
X156190395Y-86461903D02*
X156166585Y-86438093D01*
X156166585Y-86438093D02*
X156142776Y-86390474D01*
X156142776Y-86390474D02*
X156142776Y-86295236D01*
X156142776Y-86295236D02*
X156166585Y-86247617D01*
X156452300Y-85819046D02*
X156476109Y-85866665D01*
X156476109Y-85866665D02*
X156476109Y-85961903D01*
X156476109Y-85961903D02*
X156452300Y-86009522D01*
X156452300Y-86009522D02*
X156404680Y-86033331D01*
X156404680Y-86033331D02*
X156214204Y-86033331D01*
X156214204Y-86033331D02*
X156166585Y-86009522D01*
X156166585Y-86009522D02*
X156142776Y-85961903D01*
X156142776Y-85961903D02*
X156142776Y-85866665D01*
X156142776Y-85866665D02*
X156166585Y-85819046D01*
X156166585Y-85819046D02*
X156214204Y-85795236D01*
X156214204Y-85795236D02*
X156261823Y-85795236D01*
X156261823Y-85795236D02*
X156309442Y-86033331D01*
X156214204Y-85033332D02*
X156214204Y-85199999D01*
X156476109Y-85199999D02*
X155976109Y-85199999D01*
X155976109Y-85199999D02*
X155976109Y-84961904D01*
X156142776Y-84557142D02*
X156476109Y-84557142D01*
X156142776Y-84771428D02*
X156404680Y-84771428D01*
X156404680Y-84771428D02*
X156452300Y-84747618D01*
X156452300Y-84747618D02*
X156476109Y-84699999D01*
X156476109Y-84699999D02*
X156476109Y-84628571D01*
X156476109Y-84628571D02*
X156452300Y-84580952D01*
X156452300Y-84580952D02*
X156428490Y-84557142D01*
X156452300Y-84342856D02*
X156476109Y-84295237D01*
X156476109Y-84295237D02*
X156476109Y-84199999D01*
X156476109Y-84199999D02*
X156452300Y-84152380D01*
X156452300Y-84152380D02*
X156404680Y-84128571D01*
X156404680Y-84128571D02*
X156380871Y-84128571D01*
X156380871Y-84128571D02*
X156333252Y-84152380D01*
X156333252Y-84152380D02*
X156309442Y-84199999D01*
X156309442Y-84199999D02*
X156309442Y-84271428D01*
X156309442Y-84271428D02*
X156285633Y-84319047D01*
X156285633Y-84319047D02*
X156238014Y-84342856D01*
X156238014Y-84342856D02*
X156214204Y-84342856D01*
X156214204Y-84342856D02*
X156166585Y-84319047D01*
X156166585Y-84319047D02*
X156142776Y-84271428D01*
X156142776Y-84271428D02*
X156142776Y-84199999D01*
X156142776Y-84199999D02*
X156166585Y-84152380D01*
X156452300Y-83723809D02*
X156476109Y-83771428D01*
X156476109Y-83771428D02*
X156476109Y-83866666D01*
X156476109Y-83866666D02*
X156452300Y-83914285D01*
X156452300Y-83914285D02*
X156404680Y-83938094D01*
X156404680Y-83938094D02*
X156214204Y-83938094D01*
X156214204Y-83938094D02*
X156166585Y-83914285D01*
X156166585Y-83914285D02*
X156142776Y-83866666D01*
X156142776Y-83866666D02*
X156142776Y-83771428D01*
X156142776Y-83771428D02*
X156166585Y-83723809D01*
X156166585Y-83723809D02*
X156214204Y-83699999D01*
X156214204Y-83699999D02*
X156261823Y-83699999D01*
X156261823Y-83699999D02*
X156309442Y-83938094D01*
D10*
X146544676Y-92962600D02*
X146544676Y-93267362D01*
X146544676Y-93267362D02*
X145904676Y-93267362D01*
X146544676Y-92749267D02*
X145904676Y-92749267D01*
X145904676Y-92749267D02*
X146361819Y-92535933D01*
X146361819Y-92535933D02*
X145904676Y-92322600D01*
X145904676Y-92322600D02*
X146544676Y-92322600D01*
X146544676Y-91652123D02*
X146239914Y-91865457D01*
X146544676Y-92017838D02*
X145904676Y-92017838D01*
X145904676Y-92017838D02*
X145904676Y-91774028D01*
X145904676Y-91774028D02*
X145935152Y-91713076D01*
X145935152Y-91713076D02*
X145965628Y-91682599D01*
X145965628Y-91682599D02*
X146026580Y-91652123D01*
X146026580Y-91652123D02*
X146118009Y-91652123D01*
X146118009Y-91652123D02*
X146178961Y-91682599D01*
X146178961Y-91682599D02*
X146209438Y-91713076D01*
X146209438Y-91713076D02*
X146239914Y-91774028D01*
X146239914Y-91774028D02*
X146239914Y-92017838D01*
X146544676Y-91042599D02*
X146544676Y-91408314D01*
X146544676Y-91225457D02*
X145904676Y-91225457D01*
X145904676Y-91225457D02*
X145996104Y-91286409D01*
X145996104Y-91286409D02*
X146057057Y-91347361D01*
X146057057Y-91347361D02*
X146087533Y-91408314D01*
X145904676Y-90494028D02*
X145904676Y-90615933D01*
X145904676Y-90615933D02*
X145935152Y-90676885D01*
X145935152Y-90676885D02*
X145965628Y-90707361D01*
X145965628Y-90707361D02*
X146057057Y-90768314D01*
X146057057Y-90768314D02*
X146178961Y-90798790D01*
X146178961Y-90798790D02*
X146422771Y-90798790D01*
X146422771Y-90798790D02*
X146483723Y-90768314D01*
X146483723Y-90768314D02*
X146514200Y-90737837D01*
X146514200Y-90737837D02*
X146544676Y-90676885D01*
X146544676Y-90676885D02*
X146544676Y-90554980D01*
X146544676Y-90554980D02*
X146514200Y-90494028D01*
X146514200Y-90494028D02*
X146483723Y-90463552D01*
X146483723Y-90463552D02*
X146422771Y-90433075D01*
X146422771Y-90433075D02*
X146270390Y-90433075D01*
X146270390Y-90433075D02*
X146209438Y-90463552D01*
X146209438Y-90463552D02*
X146178961Y-90494028D01*
X146178961Y-90494028D02*
X146148485Y-90554980D01*
X146148485Y-90554980D02*
X146148485Y-90676885D01*
X146148485Y-90676885D02*
X146178961Y-90737837D01*
X146178961Y-90737837D02*
X146209438Y-90768314D01*
X146209438Y-90768314D02*
X146270390Y-90798790D01*
X145904676Y-90036885D02*
X145904676Y-89975932D01*
X145904676Y-89975932D02*
X145935152Y-89914980D01*
X145935152Y-89914980D02*
X145965628Y-89884504D01*
X145965628Y-89884504D02*
X146026580Y-89854028D01*
X146026580Y-89854028D02*
X146148485Y-89823551D01*
X146148485Y-89823551D02*
X146300866Y-89823551D01*
X146300866Y-89823551D02*
X146422771Y-89854028D01*
X146422771Y-89854028D02*
X146483723Y-89884504D01*
X146483723Y-89884504D02*
X146514200Y-89914980D01*
X146514200Y-89914980D02*
X146544676Y-89975932D01*
X146544676Y-89975932D02*
X146544676Y-90036885D01*
X146544676Y-90036885D02*
X146514200Y-90097837D01*
X146514200Y-90097837D02*
X146483723Y-90128313D01*
X146483723Y-90128313D02*
X146422771Y-90158790D01*
X146422771Y-90158790D02*
X146300866Y-90189266D01*
X146300866Y-90189266D02*
X146148485Y-90189266D01*
X146148485Y-90189266D02*
X146026580Y-90158790D01*
X146026580Y-90158790D02*
X145965628Y-90128313D01*
X145965628Y-90128313D02*
X145935152Y-90097837D01*
X145935152Y-90097837D02*
X145904676Y-90036885D01*
X145904676Y-89427361D02*
X145904676Y-89366408D01*
X145904676Y-89366408D02*
X145935152Y-89305456D01*
X145935152Y-89305456D02*
X145965628Y-89274980D01*
X145965628Y-89274980D02*
X146026580Y-89244504D01*
X146026580Y-89244504D02*
X146148485Y-89214027D01*
X146148485Y-89214027D02*
X146300866Y-89214027D01*
X146300866Y-89214027D02*
X146422771Y-89244504D01*
X146422771Y-89244504D02*
X146483723Y-89274980D01*
X146483723Y-89274980D02*
X146514200Y-89305456D01*
X146514200Y-89305456D02*
X146544676Y-89366408D01*
X146544676Y-89366408D02*
X146544676Y-89427361D01*
X146544676Y-89427361D02*
X146514200Y-89488313D01*
X146514200Y-89488313D02*
X146483723Y-89518789D01*
X146483723Y-89518789D02*
X146422771Y-89549266D01*
X146422771Y-89549266D02*
X146300866Y-89579742D01*
X146300866Y-89579742D02*
X146148485Y-89579742D01*
X146148485Y-89579742D02*
X146026580Y-89549266D01*
X146026580Y-89549266D02*
X145965628Y-89518789D01*
X145965628Y-89518789D02*
X145935152Y-89488313D01*
X145935152Y-89488313D02*
X145904676Y-89427361D01*
X145904676Y-88665456D02*
X145904676Y-88787361D01*
X145904676Y-88787361D02*
X145935152Y-88848313D01*
X145935152Y-88848313D02*
X145965628Y-88878789D01*
X145965628Y-88878789D02*
X146057057Y-88939742D01*
X146057057Y-88939742D02*
X146178961Y-88970218D01*
X146178961Y-88970218D02*
X146422771Y-88970218D01*
X146422771Y-88970218D02*
X146483723Y-88939742D01*
X146483723Y-88939742D02*
X146514200Y-88909265D01*
X146514200Y-88909265D02*
X146544676Y-88848313D01*
X146544676Y-88848313D02*
X146544676Y-88726408D01*
X146544676Y-88726408D02*
X146514200Y-88665456D01*
X146514200Y-88665456D02*
X146483723Y-88634980D01*
X146483723Y-88634980D02*
X146422771Y-88604503D01*
X146422771Y-88604503D02*
X146270390Y-88604503D01*
X146270390Y-88604503D02*
X146209438Y-88634980D01*
X146209438Y-88634980D02*
X146178961Y-88665456D01*
X146178961Y-88665456D02*
X146148485Y-88726408D01*
X146148485Y-88726408D02*
X146148485Y-88848313D01*
X146148485Y-88848313D02*
X146178961Y-88909265D01*
X146178961Y-88909265D02*
X146209438Y-88939742D01*
X146209438Y-88939742D02*
X146270390Y-88970218D01*
X145904676Y-88391170D02*
X146544676Y-87964503D01*
X145904676Y-87964503D02*
X146544676Y-88391170D01*
X146544676Y-87720694D02*
X145904676Y-87720694D01*
X145904676Y-87720694D02*
X145904676Y-87568313D01*
X145904676Y-87568313D02*
X145935152Y-87476884D01*
X145935152Y-87476884D02*
X145996104Y-87415932D01*
X145996104Y-87415932D02*
X146057057Y-87385455D01*
X146057057Y-87385455D02*
X146178961Y-87354979D01*
X146178961Y-87354979D02*
X146270390Y-87354979D01*
X146270390Y-87354979D02*
X146392295Y-87385455D01*
X146392295Y-87385455D02*
X146453247Y-87415932D01*
X146453247Y-87415932D02*
X146514200Y-87476884D01*
X146514200Y-87476884D02*
X146544676Y-87568313D01*
X146544676Y-87568313D02*
X146544676Y-87720694D01*
X146544676Y-87080694D02*
X145904676Y-87080694D01*
X145904676Y-87080694D02*
X145904676Y-86928313D01*
X145904676Y-86928313D02*
X145935152Y-86836884D01*
X145935152Y-86836884D02*
X145996104Y-86775932D01*
X145996104Y-86775932D02*
X146057057Y-86745455D01*
X146057057Y-86745455D02*
X146178961Y-86714979D01*
X146178961Y-86714979D02*
X146270390Y-86714979D01*
X146270390Y-86714979D02*
X146392295Y-86745455D01*
X146392295Y-86745455D02*
X146453247Y-86775932D01*
X146453247Y-86775932D02*
X146514200Y-86836884D01*
X146514200Y-86836884D02*
X146544676Y-86928313D01*
X146544676Y-86928313D02*
X146544676Y-87080694D01*
X146483723Y-86074979D02*
X146514200Y-86105455D01*
X146514200Y-86105455D02*
X146544676Y-86196884D01*
X146544676Y-86196884D02*
X146544676Y-86257836D01*
X146544676Y-86257836D02*
X146514200Y-86349265D01*
X146514200Y-86349265D02*
X146453247Y-86410217D01*
X146453247Y-86410217D02*
X146392295Y-86440694D01*
X146392295Y-86440694D02*
X146270390Y-86471170D01*
X146270390Y-86471170D02*
X146178961Y-86471170D01*
X146178961Y-86471170D02*
X146057057Y-86440694D01*
X146057057Y-86440694D02*
X145996104Y-86410217D01*
X145996104Y-86410217D02*
X145935152Y-86349265D01*
X145935152Y-86349265D02*
X145904676Y-86257836D01*
X145904676Y-86257836D02*
X145904676Y-86196884D01*
X145904676Y-86196884D02*
X145935152Y-86105455D01*
X145935152Y-86105455D02*
X145965628Y-86074979D01*
X145904676Y-85892122D02*
X145904676Y-85526408D01*
X146544676Y-85709265D02*
X145904676Y-85709265D01*
X134054819Y-94095238D02*
X134054819Y-94666666D01*
X134054819Y-94380952D02*
X133054819Y-94380952D01*
X133054819Y-94380952D02*
X133197676Y-94476190D01*
X133197676Y-94476190D02*
X133292914Y-94571428D01*
X133292914Y-94571428D02*
X133340533Y-94666666D01*
X133054819Y-93476190D02*
X133054819Y-93380952D01*
X133054819Y-93380952D02*
X133102438Y-93285714D01*
X133102438Y-93285714D02*
X133150057Y-93238095D01*
X133150057Y-93238095D02*
X133245295Y-93190476D01*
X133245295Y-93190476D02*
X133435771Y-93142857D01*
X133435771Y-93142857D02*
X133673866Y-93142857D01*
X133673866Y-93142857D02*
X133864342Y-93190476D01*
X133864342Y-93190476D02*
X133959580Y-93238095D01*
X133959580Y-93238095D02*
X134007200Y-93285714D01*
X134007200Y-93285714D02*
X134054819Y-93380952D01*
X134054819Y-93380952D02*
X134054819Y-93476190D01*
X134054819Y-93476190D02*
X134007200Y-93571428D01*
X134007200Y-93571428D02*
X133959580Y-93619047D01*
X133959580Y-93619047D02*
X133864342Y-93666666D01*
X133864342Y-93666666D02*
X133673866Y-93714285D01*
X133673866Y-93714285D02*
X133435771Y-93714285D01*
X133435771Y-93714285D02*
X133245295Y-93666666D01*
X133245295Y-93666666D02*
X133150057Y-93619047D01*
X133150057Y-93619047D02*
X133102438Y-93571428D01*
X133102438Y-93571428D02*
X133054819Y-93476190D01*
X134054819Y-92714285D02*
X133054819Y-92714285D01*
X133673866Y-92619047D02*
X134054819Y-92333333D01*
X133388152Y-92333333D02*
X133769104Y-92714285D01*
D11*
X135818373Y-93616666D02*
X135485040Y-93849999D01*
X135818373Y-94016666D02*
X135118373Y-94016666D01*
X135118373Y-94016666D02*
X135118373Y-93749999D01*
X135118373Y-93749999D02*
X135151706Y-93683333D01*
X135151706Y-93683333D02*
X135185040Y-93649999D01*
X135185040Y-93649999D02*
X135251706Y-93616666D01*
X135251706Y-93616666D02*
X135351706Y-93616666D01*
X135351706Y-93616666D02*
X135418373Y-93649999D01*
X135418373Y-93649999D02*
X135451706Y-93683333D01*
X135451706Y-93683333D02*
X135485040Y-93749999D01*
X135485040Y-93749999D02*
X135485040Y-94016666D01*
X135418373Y-93216666D02*
X135385040Y-93283333D01*
X135385040Y-93283333D02*
X135351706Y-93316666D01*
X135351706Y-93316666D02*
X135285040Y-93349999D01*
X135285040Y-93349999D02*
X135251706Y-93349999D01*
X135251706Y-93349999D02*
X135185040Y-93316666D01*
X135185040Y-93316666D02*
X135151706Y-93283333D01*
X135151706Y-93283333D02*
X135118373Y-93216666D01*
X135118373Y-93216666D02*
X135118373Y-93083333D01*
X135118373Y-93083333D02*
X135151706Y-93016666D01*
X135151706Y-93016666D02*
X135185040Y-92983333D01*
X135185040Y-92983333D02*
X135251706Y-92949999D01*
X135251706Y-92949999D02*
X135285040Y-92949999D01*
X135285040Y-92949999D02*
X135351706Y-92983333D01*
X135351706Y-92983333D02*
X135385040Y-93016666D01*
X135385040Y-93016666D02*
X135418373Y-93083333D01*
X135418373Y-93083333D02*
X135418373Y-93216666D01*
X135418373Y-93216666D02*
X135451706Y-93283333D01*
X135451706Y-93283333D02*
X135485040Y-93316666D01*
X135485040Y-93316666D02*
X135551706Y-93349999D01*
X135551706Y-93349999D02*
X135685040Y-93349999D01*
X135685040Y-93349999D02*
X135751706Y-93316666D01*
X135751706Y-93316666D02*
X135785040Y-93283333D01*
X135785040Y-93283333D02*
X135818373Y-93216666D01*
X135818373Y-93216666D02*
X135818373Y-93083333D01*
X135818373Y-93083333D02*
X135785040Y-93016666D01*
X135785040Y-93016666D02*
X135751706Y-92983333D01*
X135751706Y-92983333D02*
X135685040Y-92949999D01*
X135685040Y-92949999D02*
X135551706Y-92949999D01*
X135551706Y-92949999D02*
X135485040Y-92983333D01*
X135485040Y-92983333D02*
X135451706Y-93016666D01*
X135451706Y-93016666D02*
X135418373Y-93083333D01*
D10*
X167821428Y-84897565D02*
X167916666Y-84945184D01*
X167916666Y-84945184D02*
X168059523Y-84945184D01*
X168059523Y-84945184D02*
X168202380Y-84897565D01*
X168202380Y-84897565D02*
X168297618Y-84802327D01*
X168297618Y-84802327D02*
X168345237Y-84707089D01*
X168345237Y-84707089D02*
X168392856Y-84516613D01*
X168392856Y-84516613D02*
X168392856Y-84373756D01*
X168392856Y-84373756D02*
X168345237Y-84183280D01*
X168345237Y-84183280D02*
X168297618Y-84088042D01*
X168297618Y-84088042D02*
X168202380Y-83992804D01*
X168202380Y-83992804D02*
X168059523Y-83945184D01*
X168059523Y-83945184D02*
X167964285Y-83945184D01*
X167964285Y-83945184D02*
X167821428Y-83992804D01*
X167821428Y-83992804D02*
X167773809Y-84040423D01*
X167773809Y-84040423D02*
X167773809Y-84373756D01*
X167773809Y-84373756D02*
X167964285Y-84373756D01*
X167392856Y-84849946D02*
X167345237Y-84897565D01*
X167345237Y-84897565D02*
X167249999Y-84945184D01*
X167249999Y-84945184D02*
X167011904Y-84945184D01*
X167011904Y-84945184D02*
X166916666Y-84897565D01*
X166916666Y-84897565D02*
X166869047Y-84849946D01*
X166869047Y-84849946D02*
X166821428Y-84754708D01*
X166821428Y-84754708D02*
X166821428Y-84659470D01*
X166821428Y-84659470D02*
X166869047Y-84516613D01*
X166869047Y-84516613D02*
X167440475Y-83945184D01*
X167440475Y-83945184D02*
X166821428Y-83945184D01*
X165821428Y-83945184D02*
X166154761Y-84421375D01*
X166392856Y-83945184D02*
X166392856Y-84945184D01*
X166392856Y-84945184D02*
X166011904Y-84945184D01*
X166011904Y-84945184D02*
X165916666Y-84897565D01*
X165916666Y-84897565D02*
X165869047Y-84849946D01*
X165869047Y-84849946D02*
X165821428Y-84754708D01*
X165821428Y-84754708D02*
X165821428Y-84611851D01*
X165821428Y-84611851D02*
X165869047Y-84516613D01*
X165869047Y-84516613D02*
X165916666Y-84468994D01*
X165916666Y-84468994D02*
X166011904Y-84421375D01*
X166011904Y-84421375D02*
X166392856Y-84421375D01*
X164916666Y-83945184D02*
X165392856Y-83945184D01*
X165392856Y-83945184D02*
X165392856Y-84945184D01*
X164583332Y-84326137D02*
X163821428Y-84326137D01*
X162821428Y-83945184D02*
X163392856Y-83945184D01*
X163107142Y-83945184D02*
X163107142Y-84945184D01*
X163107142Y-84945184D02*
X163202380Y-84802327D01*
X163202380Y-84802327D02*
X163297618Y-84707089D01*
X163297618Y-84707089D02*
X163392856Y-84659470D01*
X162440475Y-84230899D02*
X161964285Y-84230899D01*
X162535713Y-83945184D02*
X162202380Y-84945184D01*
X162202380Y-84945184D02*
X161869047Y-83945184D01*
X161535713Y-84326137D02*
X160773809Y-84326137D01*
X160297618Y-84468994D02*
X159964285Y-84468994D01*
X159821428Y-83945184D02*
X160297618Y-83945184D01*
X160297618Y-83945184D02*
X160297618Y-84945184D01*
X160297618Y-84945184D02*
X159821428Y-84945184D01*
X158630951Y-83945184D02*
X158630951Y-84945184D01*
X158630951Y-84945184D02*
X158392856Y-84945184D01*
X158392856Y-84945184D02*
X158249999Y-84897565D01*
X158249999Y-84897565D02*
X158154761Y-84802327D01*
X158154761Y-84802327D02*
X158107142Y-84707089D01*
X158107142Y-84707089D02*
X158059523Y-84516613D01*
X158059523Y-84516613D02*
X158059523Y-84373756D01*
X158059523Y-84373756D02*
X158107142Y-84183280D01*
X158107142Y-84183280D02*
X158154761Y-84088042D01*
X158154761Y-84088042D02*
X158249999Y-83992804D01*
X158249999Y-83992804D02*
X158392856Y-83945184D01*
X158392856Y-83945184D02*
X158630951Y-83945184D01*
X157059523Y-84040423D02*
X157107142Y-83992804D01*
X157107142Y-83992804D02*
X157249999Y-83945184D01*
X157249999Y-83945184D02*
X157345237Y-83945184D01*
X157345237Y-83945184D02*
X157488094Y-83992804D01*
X157488094Y-83992804D02*
X157583332Y-84088042D01*
X157583332Y-84088042D02*
X157630951Y-84183280D01*
X157630951Y-84183280D02*
X157678570Y-84373756D01*
X157678570Y-84373756D02*
X157678570Y-84516613D01*
X157678570Y-84516613D02*
X157630951Y-84707089D01*
X157630951Y-84707089D02*
X157583332Y-84802327D01*
X157583332Y-84802327D02*
X157488094Y-84897565D01*
X157488094Y-84897565D02*
X157345237Y-84945184D01*
X157345237Y-84945184D02*
X157249999Y-84945184D01*
X157249999Y-84945184D02*
X157107142Y-84897565D01*
X157107142Y-84897565D02*
X157059523Y-84849946D01*
X156154761Y-84945184D02*
X156630951Y-84945184D01*
X156630951Y-84945184D02*
X156678570Y-84468994D01*
X156678570Y-84468994D02*
X156630951Y-84516613D01*
X156630951Y-84516613D02*
X156535713Y-84564232D01*
X156535713Y-84564232D02*
X156297618Y-84564232D01*
X156297618Y-84564232D02*
X156202380Y-84516613D01*
X156202380Y-84516613D02*
X156154761Y-84468994D01*
X156154761Y-84468994D02*
X156107142Y-84373756D01*
X156107142Y-84373756D02*
X156107142Y-84135661D01*
X156107142Y-84135661D02*
X156154761Y-84040423D01*
X156154761Y-84040423D02*
X156202380Y-83992804D01*
X156202380Y-83992804D02*
X156297618Y-83945184D01*
X156297618Y-83945184D02*
X156535713Y-83945184D01*
X156535713Y-83945184D02*
X156630951Y-83992804D01*
X156630951Y-83992804D02*
X156678570Y-84040423D01*
X163250000Y-83945184D02*
X163583333Y-84421375D01*
X163821428Y-83945184D02*
X163821428Y-84945184D01*
X163821428Y-84945184D02*
X163440476Y-84945184D01*
X163440476Y-84945184D02*
X163345238Y-84897565D01*
X163345238Y-84897565D02*
X163297619Y-84849946D01*
X163297619Y-84849946D02*
X163250000Y-84754708D01*
X163250000Y-84754708D02*
X163250000Y-84611851D01*
X163250000Y-84611851D02*
X163297619Y-84516613D01*
X163297619Y-84516613D02*
X163345238Y-84468994D01*
X163345238Y-84468994D02*
X163440476Y-84421375D01*
X163440476Y-84421375D02*
X163821428Y-84421375D01*
X162345238Y-83945184D02*
X162821428Y-83945184D01*
X162821428Y-83945184D02*
X162821428Y-84945184D01*
X162059523Y-84230899D02*
X161583333Y-84230899D01*
X162154761Y-83945184D02*
X161821428Y-84945184D01*
X161821428Y-84945184D02*
X161488095Y-83945184D01*
X160630952Y-83945184D02*
X161202380Y-83945184D01*
X160916666Y-83945184D02*
X160916666Y-84945184D01*
X160916666Y-84945184D02*
X161011904Y-84802327D01*
X161011904Y-84802327D02*
X161107142Y-84707089D01*
X161107142Y-84707089D02*
X161202380Y-84659470D01*
X166000000Y-99288154D02*
X166000000Y-99526249D01*
X165761905Y-99431011D02*
X166000000Y-99526249D01*
X166000000Y-99526249D02*
X166238095Y-99431011D01*
X165857143Y-99716725D02*
X166000000Y-99526249D01*
X166000000Y-99526249D02*
X166142857Y-99716725D01*
X165999999Y-100378515D02*
X165999999Y-100140420D01*
X166238094Y-100235658D02*
X165999999Y-100140420D01*
X165999999Y-100140420D02*
X165761904Y-100235658D01*
X166142856Y-99949944D02*
X165999999Y-100140420D01*
X165999999Y-100140420D02*
X165857142Y-99949944D01*
X135954819Y-105533332D02*
X134954819Y-105533332D01*
X134954819Y-105533332D02*
X135954819Y-104961904D01*
X135954819Y-104961904D02*
X134954819Y-104961904D01*
X135431009Y-104485713D02*
X135431009Y-104152380D01*
X135954819Y-104009523D02*
X135954819Y-104485713D01*
X135954819Y-104485713D02*
X134954819Y-104485713D01*
X134954819Y-104485713D02*
X134954819Y-104009523D01*
X134954819Y-103104761D02*
X134954819Y-103580951D01*
X134954819Y-103580951D02*
X135431009Y-103628570D01*
X135431009Y-103628570D02*
X135383390Y-103580951D01*
X135383390Y-103580951D02*
X135335771Y-103485713D01*
X135335771Y-103485713D02*
X135335771Y-103247618D01*
X135335771Y-103247618D02*
X135383390Y-103152380D01*
X135383390Y-103152380D02*
X135431009Y-103104761D01*
X135431009Y-103104761D02*
X135526247Y-103057142D01*
X135526247Y-103057142D02*
X135764342Y-103057142D01*
X135764342Y-103057142D02*
X135859580Y-103104761D01*
X135859580Y-103104761D02*
X135907200Y-103152380D01*
X135907200Y-103152380D02*
X135954819Y-103247618D01*
X135954819Y-103247618D02*
X135954819Y-103485713D01*
X135954819Y-103485713D02*
X135907200Y-103580951D01*
X135907200Y-103580951D02*
X135859580Y-103628570D01*
X134954819Y-102152380D02*
X134954819Y-102628570D01*
X134954819Y-102628570D02*
X135431009Y-102676189D01*
X135431009Y-102676189D02*
X135383390Y-102628570D01*
X135383390Y-102628570D02*
X135335771Y-102533332D01*
X135335771Y-102533332D02*
X135335771Y-102295237D01*
X135335771Y-102295237D02*
X135383390Y-102199999D01*
X135383390Y-102199999D02*
X135431009Y-102152380D01*
X135431009Y-102152380D02*
X135526247Y-102104761D01*
X135526247Y-102104761D02*
X135764342Y-102104761D01*
X135764342Y-102104761D02*
X135859580Y-102152380D01*
X135859580Y-102152380D02*
X135907200Y-102199999D01*
X135907200Y-102199999D02*
X135954819Y-102295237D01*
X135954819Y-102295237D02*
X135954819Y-102533332D01*
X135954819Y-102533332D02*
X135907200Y-102628570D01*
X135907200Y-102628570D02*
X135859580Y-102676189D01*
X134954819Y-101199999D02*
X134954819Y-101676189D01*
X134954819Y-101676189D02*
X135431009Y-101723808D01*
X135431009Y-101723808D02*
X135383390Y-101676189D01*
X135383390Y-101676189D02*
X135335771Y-101580951D01*
X135335771Y-101580951D02*
X135335771Y-101342856D01*
X135335771Y-101342856D02*
X135383390Y-101247618D01*
X135383390Y-101247618D02*
X135431009Y-101199999D01*
X135431009Y-101199999D02*
X135526247Y-101152380D01*
X135526247Y-101152380D02*
X135764342Y-101152380D01*
X135764342Y-101152380D02*
X135859580Y-101199999D01*
X135859580Y-101199999D02*
X135907200Y-101247618D01*
X135907200Y-101247618D02*
X135954819Y-101342856D01*
X135954819Y-101342856D02*
X135954819Y-101580951D01*
X135954819Y-101580951D02*
X135907200Y-101676189D01*
X135907200Y-101676189D02*
X135859580Y-101723808D01*
X135954819Y-100723808D02*
X134954819Y-100723808D01*
X134954819Y-100723808D02*
X134954819Y-100485713D01*
X134954819Y-100485713D02*
X135002438Y-100342856D01*
X135002438Y-100342856D02*
X135097676Y-100247618D01*
X135097676Y-100247618D02*
X135192914Y-100199999D01*
X135192914Y-100199999D02*
X135383390Y-100152380D01*
X135383390Y-100152380D02*
X135526247Y-100152380D01*
X135526247Y-100152380D02*
X135716723Y-100199999D01*
X135716723Y-100199999D02*
X135811961Y-100247618D01*
X135811961Y-100247618D02*
X135907200Y-100342856D01*
X135907200Y-100342856D02*
X135954819Y-100485713D01*
X135954819Y-100485713D02*
X135954819Y-100723808D01*
X135954819Y-99152380D02*
X135478628Y-99485713D01*
X135954819Y-99723808D02*
X134954819Y-99723808D01*
X134954819Y-99723808D02*
X134954819Y-99342856D01*
X134954819Y-99342856D02*
X135002438Y-99247618D01*
X135002438Y-99247618D02*
X135050057Y-99199999D01*
X135050057Y-99199999D02*
X135145295Y-99152380D01*
X135145295Y-99152380D02*
X135288152Y-99152380D01*
X135288152Y-99152380D02*
X135383390Y-99199999D01*
X135383390Y-99199999D02*
X135431009Y-99247618D01*
X135431009Y-99247618D02*
X135478628Y-99342856D01*
X135478628Y-99342856D02*
X135478628Y-99723808D01*
X135573866Y-98723808D02*
X135573866Y-97961904D01*
X135954819Y-97485713D02*
X134954819Y-97485713D01*
X134954819Y-97485713D02*
X135669104Y-97152380D01*
X135669104Y-97152380D02*
X134954819Y-96819047D01*
X134954819Y-96819047D02*
X135954819Y-96819047D01*
X135907200Y-96390475D02*
X135954819Y-96247618D01*
X135954819Y-96247618D02*
X135954819Y-96009523D01*
X135954819Y-96009523D02*
X135907200Y-95914285D01*
X135907200Y-95914285D02*
X135859580Y-95866666D01*
X135859580Y-95866666D02*
X135764342Y-95819047D01*
X135764342Y-95819047D02*
X135669104Y-95819047D01*
X135669104Y-95819047D02*
X135573866Y-95866666D01*
X135573866Y-95866666D02*
X135526247Y-95914285D01*
X135526247Y-95914285D02*
X135478628Y-96009523D01*
X135478628Y-96009523D02*
X135431009Y-96199999D01*
X135431009Y-96199999D02*
X135383390Y-96295237D01*
X135383390Y-96295237D02*
X135335771Y-96342856D01*
X135335771Y-96342856D02*
X135240533Y-96390475D01*
X135240533Y-96390475D02*
X135145295Y-96390475D01*
X135145295Y-96390475D02*
X135050057Y-96342856D01*
X135050057Y-96342856D02*
X135002438Y-96295237D01*
X135002438Y-96295237D02*
X134954819Y-96199999D01*
X134954819Y-96199999D02*
X134954819Y-95961904D01*
X134954819Y-95961904D02*
X135002438Y-95819047D01*
X139384819Y-100361904D02*
X140194342Y-100361904D01*
X140194342Y-100361904D02*
X140289580Y-100314285D01*
X140289580Y-100314285D02*
X140337200Y-100266666D01*
X140337200Y-100266666D02*
X140384819Y-100171428D01*
X140384819Y-100171428D02*
X140384819Y-99980952D01*
X140384819Y-99980952D02*
X140337200Y-99885714D01*
X140337200Y-99885714D02*
X140289580Y-99838095D01*
X140289580Y-99838095D02*
X140194342Y-99790476D01*
X140194342Y-99790476D02*
X139384819Y-99790476D01*
X139480057Y-99361904D02*
X139432438Y-99314285D01*
X139432438Y-99314285D02*
X139384819Y-99219047D01*
X139384819Y-99219047D02*
X139384819Y-98980952D01*
X139384819Y-98980952D02*
X139432438Y-98885714D01*
X139432438Y-98885714D02*
X139480057Y-98838095D01*
X139480057Y-98838095D02*
X139575295Y-98790476D01*
X139575295Y-98790476D02*
X139670533Y-98790476D01*
X139670533Y-98790476D02*
X139813390Y-98838095D01*
X139813390Y-98838095D02*
X140384819Y-99409523D01*
X140384819Y-99409523D02*
X140384819Y-98790476D01*
X145214285Y-106354819D02*
X144642857Y-106354819D01*
X144928571Y-106354819D02*
X144928571Y-105354819D01*
X144928571Y-105354819D02*
X144833333Y-105497676D01*
X144833333Y-105497676D02*
X144738095Y-105592914D01*
X144738095Y-105592914D02*
X144642857Y-105640533D01*
X145642857Y-106354819D02*
X145642857Y-105354819D01*
X145642857Y-105354819D02*
X145976190Y-106069104D01*
X145976190Y-106069104D02*
X146309523Y-105354819D01*
X146309523Y-105354819D02*
X146309523Y-106354819D01*
D11*
X143883333Y-104318373D02*
X143650000Y-103985040D01*
X143483333Y-104318373D02*
X143483333Y-103618373D01*
X143483333Y-103618373D02*
X143750000Y-103618373D01*
X143750000Y-103618373D02*
X143816667Y-103651706D01*
X143816667Y-103651706D02*
X143850000Y-103685040D01*
X143850000Y-103685040D02*
X143883333Y-103751706D01*
X143883333Y-103751706D02*
X143883333Y-103851706D01*
X143883333Y-103851706D02*
X143850000Y-103918373D01*
X143850000Y-103918373D02*
X143816667Y-103951706D01*
X143816667Y-103951706D02*
X143750000Y-103985040D01*
X143750000Y-103985040D02*
X143483333Y-103985040D01*
X144550000Y-104318373D02*
X144150000Y-104318373D01*
X144350000Y-104318373D02*
X144350000Y-103618373D01*
X144350000Y-103618373D02*
X144283333Y-103718373D01*
X144283333Y-103718373D02*
X144216667Y-103785040D01*
X144216667Y-103785040D02*
X144150000Y-103818373D01*
D10*
X175954820Y-99728569D02*
X176954820Y-99061903D01*
X175954820Y-99061903D02*
X176954820Y-99728569D01*
X175954820Y-98823807D02*
X175954820Y-98252379D01*
X176954820Y-98538093D02*
X175954820Y-98538093D01*
X175954820Y-97490474D02*
X175954820Y-97680950D01*
X175954820Y-97680950D02*
X176002439Y-97776188D01*
X176002439Y-97776188D02*
X176050058Y-97823807D01*
X176050058Y-97823807D02*
X176192915Y-97919045D01*
X176192915Y-97919045D02*
X176383391Y-97966664D01*
X176383391Y-97966664D02*
X176764343Y-97966664D01*
X176764343Y-97966664D02*
X176859581Y-97919045D01*
X176859581Y-97919045D02*
X176907201Y-97871426D01*
X176907201Y-97871426D02*
X176954820Y-97776188D01*
X176954820Y-97776188D02*
X176954820Y-97585712D01*
X176954820Y-97585712D02*
X176907201Y-97490474D01*
X176907201Y-97490474D02*
X176859581Y-97442855D01*
X176859581Y-97442855D02*
X176764343Y-97395236D01*
X176764343Y-97395236D02*
X176526248Y-97395236D01*
X176526248Y-97395236D02*
X176431010Y-97442855D01*
X176431010Y-97442855D02*
X176383391Y-97490474D01*
X176383391Y-97490474D02*
X176335772Y-97585712D01*
X176335772Y-97585712D02*
X176335772Y-97776188D01*
X176335772Y-97776188D02*
X176383391Y-97871426D01*
X176383391Y-97871426D02*
X176431010Y-97919045D01*
X176431010Y-97919045D02*
X176526248Y-97966664D01*
X175954820Y-96776188D02*
X175954820Y-96680950D01*
X175954820Y-96680950D02*
X176002439Y-96585712D01*
X176002439Y-96585712D02*
X176050058Y-96538093D01*
X176050058Y-96538093D02*
X176145296Y-96490474D01*
X176145296Y-96490474D02*
X176335772Y-96442855D01*
X176335772Y-96442855D02*
X176573867Y-96442855D01*
X176573867Y-96442855D02*
X176764343Y-96490474D01*
X176764343Y-96490474D02*
X176859581Y-96538093D01*
X176859581Y-96538093D02*
X176907201Y-96585712D01*
X176907201Y-96585712D02*
X176954820Y-96680950D01*
X176954820Y-96680950D02*
X176954820Y-96776188D01*
X176954820Y-96776188D02*
X176907201Y-96871426D01*
X176907201Y-96871426D02*
X176859581Y-96919045D01*
X176859581Y-96919045D02*
X176764343Y-96966664D01*
X176764343Y-96966664D02*
X176573867Y-97014283D01*
X176573867Y-97014283D02*
X176335772Y-97014283D01*
X176335772Y-97014283D02*
X176145296Y-96966664D01*
X176145296Y-96966664D02*
X176050058Y-96919045D01*
X176050058Y-96919045D02*
X176002439Y-96871426D01*
X176002439Y-96871426D02*
X175954820Y-96776188D01*
X176954820Y-96014283D02*
X175954820Y-96014283D01*
X175954820Y-96014283D02*
X175954820Y-95633331D01*
X175954820Y-95633331D02*
X176002439Y-95538093D01*
X176002439Y-95538093D02*
X176050058Y-95490474D01*
X176050058Y-95490474D02*
X176145296Y-95442855D01*
X176145296Y-95442855D02*
X176288153Y-95442855D01*
X176288153Y-95442855D02*
X176383391Y-95490474D01*
X176383391Y-95490474D02*
X176431010Y-95538093D01*
X176431010Y-95538093D02*
X176478629Y-95633331D01*
X176478629Y-95633331D02*
X176478629Y-96014283D01*
X175954820Y-95109521D02*
X176954820Y-94871426D01*
X176954820Y-94871426D02*
X176240534Y-94680950D01*
X176240534Y-94680950D02*
X176954820Y-94490474D01*
X176954820Y-94490474D02*
X175954820Y-94252379D01*
X176573867Y-93871426D02*
X176573867Y-93109522D01*
X176954820Y-92633331D02*
X175954820Y-92633331D01*
X175954820Y-92633331D02*
X176669105Y-92299998D01*
X176669105Y-92299998D02*
X175954820Y-91966665D01*
X175954820Y-91966665D02*
X176954820Y-91966665D01*
X171954819Y-92233333D02*
X172669104Y-92233333D01*
X172669104Y-92233333D02*
X172811961Y-92280952D01*
X172811961Y-92280952D02*
X172907200Y-92376190D01*
X172907200Y-92376190D02*
X172954819Y-92519047D01*
X172954819Y-92519047D02*
X172954819Y-92614285D01*
X172954819Y-91233333D02*
X172954819Y-91804761D01*
X172954819Y-91519047D02*
X171954819Y-91519047D01*
X171954819Y-91519047D02*
X172097676Y-91614285D01*
X172097676Y-91614285D02*
X172192914Y-91709523D01*
X172192914Y-91709523D02*
X172240533Y-91804761D01*
X171954819Y-83028571D02*
X172954819Y-82361905D01*
X171954819Y-82361905D02*
X172954819Y-83028571D01*
X171954819Y-82123809D02*
X171954819Y-81552381D01*
X172954819Y-81838095D02*
X171954819Y-81838095D01*
X171954819Y-80790476D02*
X171954819Y-80980952D01*
X171954819Y-80980952D02*
X172002438Y-81076190D01*
X172002438Y-81076190D02*
X172050057Y-81123809D01*
X172050057Y-81123809D02*
X172192914Y-81219047D01*
X172192914Y-81219047D02*
X172383390Y-81266666D01*
X172383390Y-81266666D02*
X172764342Y-81266666D01*
X172764342Y-81266666D02*
X172859580Y-81219047D01*
X172859580Y-81219047D02*
X172907200Y-81171428D01*
X172907200Y-81171428D02*
X172954819Y-81076190D01*
X172954819Y-81076190D02*
X172954819Y-80885714D01*
X172954819Y-80885714D02*
X172907200Y-80790476D01*
X172907200Y-80790476D02*
X172859580Y-80742857D01*
X172859580Y-80742857D02*
X172764342Y-80695238D01*
X172764342Y-80695238D02*
X172526247Y-80695238D01*
X172526247Y-80695238D02*
X172431009Y-80742857D01*
X172431009Y-80742857D02*
X172383390Y-80790476D01*
X172383390Y-80790476D02*
X172335771Y-80885714D01*
X172335771Y-80885714D02*
X172335771Y-81076190D01*
X172335771Y-81076190D02*
X172383390Y-81171428D01*
X172383390Y-81171428D02*
X172431009Y-81219047D01*
X172431009Y-81219047D02*
X172526247Y-81266666D01*
X171954819Y-80076190D02*
X171954819Y-79980952D01*
X171954819Y-79980952D02*
X172002438Y-79885714D01*
X172002438Y-79885714D02*
X172050057Y-79838095D01*
X172050057Y-79838095D02*
X172145295Y-79790476D01*
X172145295Y-79790476D02*
X172335771Y-79742857D01*
X172335771Y-79742857D02*
X172573866Y-79742857D01*
X172573866Y-79742857D02*
X172764342Y-79790476D01*
X172764342Y-79790476D02*
X172859580Y-79838095D01*
X172859580Y-79838095D02*
X172907200Y-79885714D01*
X172907200Y-79885714D02*
X172954819Y-79980952D01*
X172954819Y-79980952D02*
X172954819Y-80076190D01*
X172954819Y-80076190D02*
X172907200Y-80171428D01*
X172907200Y-80171428D02*
X172859580Y-80219047D01*
X172859580Y-80219047D02*
X172764342Y-80266666D01*
X172764342Y-80266666D02*
X172573866Y-80314285D01*
X172573866Y-80314285D02*
X172335771Y-80314285D01*
X172335771Y-80314285D02*
X172145295Y-80266666D01*
X172145295Y-80266666D02*
X172050057Y-80219047D01*
X172050057Y-80219047D02*
X172002438Y-80171428D01*
X172002438Y-80171428D02*
X171954819Y-80076190D01*
X172954819Y-79314285D02*
X171954819Y-79314285D01*
X171954819Y-79314285D02*
X171954819Y-78933333D01*
X171954819Y-78933333D02*
X172002438Y-78838095D01*
X172002438Y-78838095D02*
X172050057Y-78790476D01*
X172050057Y-78790476D02*
X172145295Y-78742857D01*
X172145295Y-78742857D02*
X172288152Y-78742857D01*
X172288152Y-78742857D02*
X172383390Y-78790476D01*
X172383390Y-78790476D02*
X172431009Y-78838095D01*
X172431009Y-78838095D02*
X172478628Y-78933333D01*
X172478628Y-78933333D02*
X172478628Y-79314285D01*
X171954819Y-78409523D02*
X172954819Y-78171428D01*
X172954819Y-78171428D02*
X172240533Y-77980952D01*
X172240533Y-77980952D02*
X172954819Y-77790476D01*
X172954819Y-77790476D02*
X171954819Y-77552381D01*
X172573866Y-77171428D02*
X172573866Y-76409524D01*
X172954819Y-75933333D02*
X171954819Y-75933333D01*
X171954819Y-75933333D02*
X172669104Y-75600000D01*
X172669104Y-75600000D02*
X171954819Y-75266667D01*
X171954819Y-75266667D02*
X172954819Y-75266667D01*
X175454820Y-79433334D02*
X176169105Y-79433334D01*
X176169105Y-79433334D02*
X176311962Y-79480953D01*
X176311962Y-79480953D02*
X176407201Y-79576191D01*
X176407201Y-79576191D02*
X176454820Y-79719048D01*
X176454820Y-79719048D02*
X176454820Y-79814286D01*
X175550058Y-79004762D02*
X175502439Y-78957143D01*
X175502439Y-78957143D02*
X175454820Y-78861905D01*
X175454820Y-78861905D02*
X175454820Y-78623810D01*
X175454820Y-78623810D02*
X175502439Y-78528572D01*
X175502439Y-78528572D02*
X175550058Y-78480953D01*
X175550058Y-78480953D02*
X175645296Y-78433334D01*
X175645296Y-78433334D02*
X175740534Y-78433334D01*
X175740534Y-78433334D02*
X175883391Y-78480953D01*
X175883391Y-78480953D02*
X176454820Y-79052381D01*
X176454820Y-79052381D02*
X176454820Y-78433334D01*
X143428571Y-90354819D02*
X142857143Y-90354819D01*
X143142857Y-90354819D02*
X143142857Y-89354819D01*
X143142857Y-89354819D02*
X143047619Y-89497676D01*
X143047619Y-89497676D02*
X142952381Y-89592914D01*
X142952381Y-89592914D02*
X142857143Y-89640533D01*
X144047619Y-89354819D02*
X144142857Y-89354819D01*
X144142857Y-89354819D02*
X144238095Y-89402438D01*
X144238095Y-89402438D02*
X144285714Y-89450057D01*
X144285714Y-89450057D02*
X144333333Y-89545295D01*
X144333333Y-89545295D02*
X144380952Y-89735771D01*
X144380952Y-89735771D02*
X144380952Y-89973866D01*
X144380952Y-89973866D02*
X144333333Y-90164342D01*
X144333333Y-90164342D02*
X144285714Y-90259580D01*
X144285714Y-90259580D02*
X144238095Y-90307200D01*
X144238095Y-90307200D02*
X144142857Y-90354819D01*
X144142857Y-90354819D02*
X144047619Y-90354819D01*
X144047619Y-90354819D02*
X143952381Y-90307200D01*
X143952381Y-90307200D02*
X143904762Y-90259580D01*
X143904762Y-90259580D02*
X143857143Y-90164342D01*
X143857143Y-90164342D02*
X143809524Y-89973866D01*
X143809524Y-89973866D02*
X143809524Y-89735771D01*
X143809524Y-89735771D02*
X143857143Y-89545295D01*
X143857143Y-89545295D02*
X143904762Y-89450057D01*
X143904762Y-89450057D02*
X143952381Y-89402438D01*
X143952381Y-89402438D02*
X144047619Y-89354819D01*
X145000000Y-89354819D02*
X145095238Y-89354819D01*
X145095238Y-89354819D02*
X145190476Y-89402438D01*
X145190476Y-89402438D02*
X145238095Y-89450057D01*
X145238095Y-89450057D02*
X145285714Y-89545295D01*
X145285714Y-89545295D02*
X145333333Y-89735771D01*
X145333333Y-89735771D02*
X145333333Y-89973866D01*
X145333333Y-89973866D02*
X145285714Y-90164342D01*
X145285714Y-90164342D02*
X145238095Y-90259580D01*
X145238095Y-90259580D02*
X145190476Y-90307200D01*
X145190476Y-90307200D02*
X145095238Y-90354819D01*
X145095238Y-90354819D02*
X145000000Y-90354819D01*
X145000000Y-90354819D02*
X144904762Y-90307200D01*
X144904762Y-90307200D02*
X144857143Y-90259580D01*
X144857143Y-90259580D02*
X144809524Y-90164342D01*
X144809524Y-90164342D02*
X144761905Y-89973866D01*
X144761905Y-89973866D02*
X144761905Y-89735771D01*
X144761905Y-89735771D02*
X144809524Y-89545295D01*
X144809524Y-89545295D02*
X144857143Y-89450057D01*
X144857143Y-89450057D02*
X144904762Y-89402438D01*
X144904762Y-89402438D02*
X145000000Y-89354819D01*
X145761905Y-90354819D02*
X145761905Y-89354819D01*
X145857143Y-89973866D02*
X146142857Y-90354819D01*
X146142857Y-89688152D02*
X145761905Y-90069104D01*
D11*
X144383333Y-88318373D02*
X144150000Y-87985040D01*
X143983333Y-88318373D02*
X143983333Y-87618373D01*
X143983333Y-87618373D02*
X144250000Y-87618373D01*
X144250000Y-87618373D02*
X144316667Y-87651706D01*
X144316667Y-87651706D02*
X144350000Y-87685040D01*
X144350000Y-87685040D02*
X144383333Y-87751706D01*
X144383333Y-87751706D02*
X144383333Y-87851706D01*
X144383333Y-87851706D02*
X144350000Y-87918373D01*
X144350000Y-87918373D02*
X144316667Y-87951706D01*
X144316667Y-87951706D02*
X144250000Y-87985040D01*
X144250000Y-87985040D02*
X143983333Y-87985040D01*
X144716667Y-88318373D02*
X144850000Y-88318373D01*
X144850000Y-88318373D02*
X144916667Y-88285040D01*
X144916667Y-88285040D02*
X144950000Y-88251706D01*
X144950000Y-88251706D02*
X145016667Y-88151706D01*
X145016667Y-88151706D02*
X145050000Y-88018373D01*
X145050000Y-88018373D02*
X145050000Y-87751706D01*
X145050000Y-87751706D02*
X145016667Y-87685040D01*
X145016667Y-87685040D02*
X144983333Y-87651706D01*
X144983333Y-87651706D02*
X144916667Y-87618373D01*
X144916667Y-87618373D02*
X144783333Y-87618373D01*
X144783333Y-87618373D02*
X144716667Y-87651706D01*
X144716667Y-87651706D02*
X144683333Y-87685040D01*
X144683333Y-87685040D02*
X144650000Y-87751706D01*
X144650000Y-87751706D02*
X144650000Y-87918373D01*
X144650000Y-87918373D02*
X144683333Y-87985040D01*
X144683333Y-87985040D02*
X144716667Y-88018373D01*
X144716667Y-88018373D02*
X144783333Y-88051706D01*
X144783333Y-88051706D02*
X144916667Y-88051706D01*
X144916667Y-88051706D02*
X144983333Y-88018373D01*
X144983333Y-88018373D02*
X145016667Y-87985040D01*
X145016667Y-87985040D02*
X145050000Y-87918373D01*
D12*
X134979166Y-88976109D02*
X134741071Y-88976109D01*
X134741071Y-88976109D02*
X134741071Y-88476109D01*
X135407738Y-88976109D02*
X135122024Y-88976109D01*
X135264881Y-88976109D02*
X135264881Y-88476109D01*
X135264881Y-88476109D02*
X135217262Y-88547538D01*
X135217262Y-88547538D02*
X135169643Y-88595157D01*
X135169643Y-88595157D02*
X135122024Y-88618966D01*
X134193453Y-91023728D02*
X134217262Y-90999919D01*
X134217262Y-90999919D02*
X134264881Y-90976109D01*
X134264881Y-90976109D02*
X134383929Y-90976109D01*
X134383929Y-90976109D02*
X134431548Y-90999919D01*
X134431548Y-90999919D02*
X134455357Y-91023728D01*
X134455357Y-91023728D02*
X134479167Y-91071347D01*
X134479167Y-91071347D02*
X134479167Y-91118966D01*
X134479167Y-91118966D02*
X134455357Y-91190395D01*
X134455357Y-91190395D02*
X134169643Y-91476109D01*
X134169643Y-91476109D02*
X134479167Y-91476109D01*
X134669643Y-91023728D02*
X134693452Y-90999919D01*
X134693452Y-90999919D02*
X134741071Y-90976109D01*
X134741071Y-90976109D02*
X134860119Y-90976109D01*
X134860119Y-90976109D02*
X134907738Y-90999919D01*
X134907738Y-90999919D02*
X134931547Y-91023728D01*
X134931547Y-91023728D02*
X134955357Y-91071347D01*
X134955357Y-91071347D02*
X134955357Y-91118966D01*
X134955357Y-91118966D02*
X134931547Y-91190395D01*
X134931547Y-91190395D02*
X134645833Y-91476109D01*
X134645833Y-91476109D02*
X134955357Y-91476109D01*
X135383928Y-91142776D02*
X135383928Y-91476109D01*
X135169642Y-91142776D02*
X135169642Y-91404680D01*
X135169642Y-91404680D02*
X135193452Y-91452300D01*
X135193452Y-91452300D02*
X135241071Y-91476109D01*
X135241071Y-91476109D02*
X135312499Y-91476109D01*
X135312499Y-91476109D02*
X135360118Y-91452300D01*
X135360118Y-91452300D02*
X135383928Y-91428490D01*
X135622023Y-91476109D02*
X135622023Y-90976109D01*
X135622023Y-91214204D02*
X135907737Y-91214204D01*
X135907737Y-91476109D02*
X135907737Y-90976109D01*
%TO.C,R2*%
X150400000Y-99200000D02*
X153600000Y-99200000D01*
X153600000Y-100800000D01*
X150400000Y-100800000D01*
X150400000Y-99200000D01*
%TO.C,R7*%
X137900000Y-90200000D02*
X141100000Y-90200000D01*
X141100000Y-91800000D01*
X137900000Y-91800000D01*
X137900000Y-90200000D01*
%TO.C,C2*%
X137900000Y-87200000D02*
X141100000Y-87200000D01*
X141100000Y-88800000D01*
X137900000Y-88800000D01*
X137900000Y-87200000D01*
%TO.C,C4*%
X137900000Y-94200000D02*
X141100000Y-94200000D01*
X141100000Y-95800000D01*
X137900000Y-95800000D01*
X137900000Y-94200000D01*
%TO.C,D2*%
X133950000Y-87100000D02*
X135550000Y-87100000D01*
X135550000Y-87900000D01*
X133950000Y-87900000D01*
X133950000Y-87100000D01*
%TO.C,C3*%
X150400000Y-103200000D02*
X153600000Y-103200000D01*
X153600000Y-104800000D01*
X150400000Y-104800000D01*
X150400000Y-103200000D01*
%TO.C,C1*%
X137250000Y-103200000D02*
X140450000Y-103200000D01*
X140450000Y-104800000D01*
X137250000Y-104800000D01*
X137250000Y-103200000D01*
%TO.C,F1*%
X150500000Y-75700000D02*
X155000000Y-75700000D01*
X155000000Y-95000000D01*
X150500000Y-95000000D01*
X150500000Y-75700000D01*
%TO.C,U3*%
D13*
X142600000Y-93045000D02*
X142600000Y-94645000D01*
X142600000Y-94645000D02*
X145500000Y-94645000D01*
X145500000Y-93045000D02*
X142600000Y-93045000D01*
X145500000Y-94645000D02*
X145500000Y-93045000D01*
D14*
X142950000Y-96245000D02*
G75*
G02*
X142750000Y-96245000I-100000J0D01*
G01*
X142750000Y-96245000D02*
G75*
G02*
X142950000Y-96245000I100000J0D01*
G01*
%TO.C,R8*%
D12*
X134700000Y-91900000D02*
X136300000Y-91900000D01*
X136300000Y-95100000D01*
X134700000Y-95100000D01*
X134700000Y-91900000D01*
%TO.C,RLA1*%
D15*
X156000000Y-70000007D02*
X156000000Y-98800001D01*
X156000000Y-98800001D02*
X168500000Y-98800001D01*
X168500000Y-70000007D02*
X156000000Y-70000007D01*
X168500000Y-98800001D02*
X168500000Y-70000007D01*
X161945200Y-98800001D02*
G75*
G02*
X162554800Y-98800001I304800J0D01*
G01*
X165098301Y-96500001D02*
X165098301Y-96500001D01*
X165098301Y-96500001D01*
X165098301Y-96500001D01*
X165098301Y-96500001D01*
X165098301Y-96500001D01*
X165098301Y-96500002D01*
X165098301Y-96500002D01*
X165098301Y-96500002D01*
X165098301Y-96500002D01*
X165098301Y-96500002D01*
X165098301Y-96500002D01*
X165098301Y-96500002D01*
X165098300Y-96500002D01*
X165098300Y-96500002D01*
X165098300Y-96500002D01*
X165098300Y-96500002D01*
X165098300Y-96500002D01*
X165098300Y-96500002D01*
X165098300Y-96500002D01*
X165098300Y-96500002D01*
X165098300Y-96500002D01*
X165098300Y-96500002D01*
X165098300Y-96500002D01*
X165098300Y-96500002D01*
X165098299Y-96500002D01*
X165098299Y-96500002D01*
X165098299Y-96500002D01*
X165098299Y-96500002D01*
X165098299Y-96500002D01*
X165098299Y-96500002D01*
X165098299Y-96500001D01*
X165098299Y-96500001D01*
X165098299Y-96500001D01*
X165098299Y-96500001D01*
X165098299Y-96500001D01*
X165098299Y-96500001D01*
X165098299Y-96500001D02*
X165098299Y-96500001D01*
X165098299Y-96500001D01*
X165098299Y-96500001D01*
X165098299Y-96500001D01*
X165098299Y-96500001D01*
X165098299Y-96500001D01*
X165098299Y-96500000D01*
X165098299Y-96500000D01*
X165098299Y-96500000D01*
X165098299Y-96500000D01*
X165098299Y-96500000D01*
X165098300Y-96500000D01*
X165098300Y-96500000D01*
X165098300Y-96500000D01*
X165098300Y-96500000D01*
X165098300Y-96500000D01*
X165098300Y-96500000D01*
X165098300Y-96500000D01*
X165098300Y-96500000D01*
X165098300Y-96500000D01*
X165098300Y-96500000D01*
X165098300Y-96500000D01*
X165098300Y-96500000D01*
X165098301Y-96500000D01*
X165098301Y-96500000D01*
X165098301Y-96500000D01*
X165098301Y-96500000D01*
X165098301Y-96500000D01*
X165098301Y-96500000D01*
X165098301Y-96500001D01*
X165098301Y-96500001D01*
X165098301Y-96500001D01*
X165098301Y-96500001D01*
X165098301Y-96500001D01*
X165098301Y-96500001D01*
X165098301Y-96500001D01*
%TO.C,R1*%
D12*
X142400000Y-103200000D02*
X145600000Y-103200000D01*
X145600000Y-104800000D01*
X142400000Y-104800000D01*
X142400000Y-103200000D01*
%TO.C,J1*%
D15*
X170650000Y-88153000D02*
X170650000Y-103647000D01*
X170650000Y-103647000D02*
X185889998Y-103647000D01*
X185889998Y-88153000D02*
X170650000Y-88153000D01*
X185889998Y-103647000D02*
X185889998Y-88153000D01*
D16*
X170976000Y-99500000D02*
G75*
G02*
X170214000Y-99500000I-381000J0D01*
G01*
X170214000Y-99500000D02*
G75*
G02*
X170976000Y-99500000I381000J0D01*
G01*
%TO.C,J2*%
D15*
X170650000Y-71353001D02*
X170650000Y-86847001D01*
X170650000Y-86847001D02*
X185889998Y-86847001D01*
X185889998Y-71353001D02*
X170650000Y-71353001D01*
X185889998Y-86847001D02*
X185889998Y-71353001D01*
D16*
X170976000Y-82700001D02*
G75*
G02*
X170214000Y-82700001I-381000J0D01*
G01*
X170214000Y-82700001D02*
G75*
G02*
X170976000Y-82700001I381000J0D01*
G01*
%TO.C,R9*%
D12*
X142900000Y-87200000D02*
X146100000Y-87200000D01*
X146100000Y-88800000D01*
X142900000Y-88800000D01*
X142900000Y-87200000D01*
%TO.C,L1*%
X134062500Y-89550000D02*
X136062500Y-89550000D01*
X134062500Y-90450000D02*
X134062500Y-89550000D01*
X136062500Y-89550000D02*
X136062500Y-90450000D01*
X136062500Y-90450000D02*
X134062500Y-90450000D01*
%TD*%
M02*
