M48
; DRILL file KiCad 10.0.3 date 2026-06-29T16:15:17
; FORMAT={-:-/ absolute / metric / decimal}
; #@! TF.CreationDate,2026-06-29T16:15:17-07:00
; #@! TF.GenerationSoftware,Kicad,Pcbnew,10.0.3
; #@! TF.FileFunction,MixedPlating,1,2
FMAT,2
METRIC
; #@! TA.AperFunction,Plated,PTH,ViaDrill
T1C0.300
; #@! TA.AperFunction,Plated,PTH,ComponentDrill
T2C1.300
; #@! TA.AperFunction,Plated,PTH,ComponentDrill
T3C2.600
; #@! TA.AperFunction,Plated,PTH,ComponentDrill
T4C2.692
; #@! TA.AperFunction,NonPlated,NPTH,ComponentDrill
T5C0.610
%
G90
G05
T1
X138.0Y-92.5
X140.5Y-96.5
X141.9Y-92.5
X144.0Y-97.0
X149.5Y-98.5
T2
X158.5Y-71.5
X158.5Y-76.5
X158.5Y-96.5
X166.0Y-71.5
X166.0Y-76.5
X166.0Y-96.5
T3
X152.0Y-78.2
X152.0Y-83.3
X152.0Y-87.4
X152.0Y-92.5
T4
X172.5Y-75.5
X172.5Y-82.7
X172.5Y-92.3
X172.5Y-99.5
T5
X177.954Y-72.35G85X179.046Y-72.35
G05
X177.954Y-85.85G85X179.046Y-85.85
G05
X177.954Y-89.15G85X179.046Y-89.15
G05
X177.954Y-102.65G85X179.046Y-102.65
G05
M30
