%TF.GenerationSoftware,KiCad,Pcbnew,10.0.3*%
%TF.CreationDate,2026-06-29T16:15:17-07:00*%
%TF.ProjectId,poachstopper,706f6163-6873-4746-9f70-7065722e6b69,rev?*%
%TF.SameCoordinates,Original*%
%TF.FileFunction,Other,User*%
%FSLAX46Y46*%
G04 Gerber Fmt 4.6, Leading zero omitted, Abs format (unit mm)*
G04 Created by KiCad (PCBNEW 10.0.3) date 2026-06-29 16:15:17*
%MOMM*%
%LPD*%
G01*
G04 APERTURE LIST*
%ADD10C,0.050000*%
%ADD11C,0.100000*%
%ADD12C,0.152400*%
G04 APERTURE END LIST*
%TO.C,R2*%
D10*
X149700000Y-99000000D02*
X154300000Y-99000000D01*
X154300000Y-101000000D01*
X149700000Y-101000000D01*
X149700000Y-99000000D01*
%TO.C,R7*%
X137200000Y-90000000D02*
X141800000Y-90000000D01*
X141800000Y-92000000D01*
X137200000Y-92000000D01*
X137200000Y-90000000D01*
%TO.C,C2*%
X137200000Y-87000000D02*
X141800000Y-87000000D01*
X141800000Y-89000000D01*
X137200000Y-89000000D01*
X137200000Y-87000000D01*
%TO.C,C4*%
X137200000Y-94000000D02*
X141800000Y-94000000D01*
X141800000Y-96000000D01*
X137200000Y-96000000D01*
X137200000Y-94000000D01*
%TO.C,D2*%
X133450000Y-86900000D02*
X136050000Y-86900000D01*
X136050000Y-88100000D01*
X133450000Y-88100000D01*
X133450000Y-86900000D01*
%TO.C,D3*%
X146750000Y-99950000D02*
X149250000Y-99950000D01*
X146750000Y-104250000D02*
X146750000Y-99950000D01*
X149250000Y-99950000D02*
X149250000Y-104250000D01*
X149250000Y-104250000D02*
X146750000Y-104250000D01*
%TO.C,R3*%
X155250000Y-100350000D02*
X168750000Y-100350000D01*
X155250000Y-107650000D02*
X155250000Y-100350000D01*
X168750000Y-100350000D02*
X168750000Y-107650000D01*
X168750000Y-107650000D02*
X155250000Y-107650000D01*
%TO.C,C3*%
X149700000Y-103000000D02*
X154300000Y-103000000D01*
X154300000Y-105000000D01*
X149700000Y-105000000D01*
X149700000Y-103000000D01*
%TO.C,C1*%
X136550000Y-103000000D02*
X141150000Y-103000000D01*
X141150000Y-105000000D01*
X136550000Y-105000000D01*
X136550000Y-103000000D01*
%TO.C,F1*%
D11*
X150200000Y-75450000D02*
X155300000Y-75450000D01*
X155300000Y-95250000D01*
X150200000Y-95250000D01*
X150200000Y-75450000D01*
%TO.C,U3*%
D10*
X142350000Y-92795000D02*
X142350000Y-94895000D01*
X142350000Y-94895000D02*
X142555000Y-94895000D01*
X142555000Y-91715000D02*
X142555000Y-92795000D01*
X142555000Y-92795000D02*
X142350000Y-92795000D01*
X142555000Y-94895000D02*
X142555000Y-95975000D01*
X142555000Y-95975000D02*
X145545000Y-95975000D01*
X145545000Y-91715000D02*
X142555000Y-91715000D01*
X145545000Y-92795000D02*
X145545000Y-91715000D01*
X145545000Y-94895000D02*
X145750000Y-94895000D01*
X145545000Y-95975000D02*
X145545000Y-94895000D01*
X145750000Y-92795000D02*
X145545000Y-92795000D01*
X145750000Y-94895000D02*
X145750000Y-92795000D01*
%TO.C,R8*%
X134500000Y-91200000D02*
X136500000Y-91200000D01*
X136500000Y-95800000D01*
X134500000Y-95800000D01*
X134500000Y-91200000D01*
%TO.C,RLA1*%
D12*
X155746000Y-69746007D02*
X168754000Y-69746007D01*
X155746000Y-99054001D02*
X155746000Y-69746007D01*
X168754000Y-69746007D02*
X168754000Y-99054001D01*
X168754000Y-99054001D02*
X155746000Y-99054001D01*
%TO.C,U2*%
D10*
X137980000Y-97150000D02*
X141880000Y-97150000D01*
X137980000Y-102050000D02*
X137980000Y-97150000D01*
X141880000Y-97150000D02*
X141880000Y-102050000D01*
X141880000Y-102050000D02*
X137980000Y-102050000D01*
%TO.C,R1*%
X141700000Y-103000000D02*
X146300000Y-103000000D01*
X146300000Y-105000000D01*
X141700000Y-105000000D01*
X141700000Y-103000000D01*
%TO.C,J1*%
D12*
X170396000Y-87899000D02*
X170396000Y-103901000D01*
X170396000Y-103901000D02*
X186143998Y-103901000D01*
X186143998Y-87899000D02*
X170396000Y-87899000D01*
X186143998Y-103901000D02*
X186143998Y-87899000D01*
%TO.C,J2*%
X170396000Y-71099001D02*
X170396000Y-87101001D01*
X170396000Y-87101001D02*
X186143998Y-87101001D01*
X186143998Y-71099001D02*
X170396000Y-71099001D01*
X186143998Y-87101001D02*
X186143998Y-71099001D01*
%TO.C,R9*%
D10*
X142200000Y-87000000D02*
X146800000Y-87000000D01*
X146800000Y-89000000D01*
X142200000Y-89000000D01*
X142200000Y-87000000D01*
%TO.C,L1*%
X133312500Y-89250000D02*
X136812500Y-89250000D01*
X136812500Y-90750000D01*
X133312500Y-90750000D01*
X133312500Y-89250000D01*
%TD*%
M02*
