%TF.GenerationSoftware,KiCad,Pcbnew,10.0.3*%
%TF.CreationDate,2026-06-29T16:15:17-07:00*%
%TF.ProjectId,poachstopper,706f6163-6873-4746-9f70-7065722e6b69,rev?*%
%TF.SameCoordinates,Original*%
%TF.FileFunction,Soldermask,Top*%
%TF.FilePolarity,Negative*%
%FSLAX46Y46*%
G04 Gerber Fmt 4.6, Leading zero omitted, Abs format (unit mm)*
G04 Created by KiCad (PCBNEW 10.0.3) date 2026-06-29 16:15:17*
%MOMM*%
%LPD*%
G01*
G04 APERTURE LIST*
G04 Aperture macros list*
%AMRoundRect*
0 Rectangle with rounded corners*
0 $1 Rounding radius*
0 $2 $3 $4 $5 $6 $7 $8 $9 X,Y pos of 4 corners*
0 Add a 4 corners polygon primitive as box body*
4,1,4,$2,$3,$4,$5,$6,$7,$8,$9,$2,$3,0*
0 Add four circle primitives for the rounded corners*
1,1,$1+$1,$2,$3*
1,1,$1+$1,$4,$5*
1,1,$1+$1,$6,$7*
1,1,$1+$1,$8,$9*
0 Add four rect primitives between the rounded corners*
20,1,$1+$1,$2,$3,$4,$5,0*
20,1,$1+$1,$4,$5,$6,$7,0*
20,1,$1+$1,$6,$7,$8,$9,0*
20,1,$1+$1,$8,$9,$2,$3,0*%
G04 Aperture macros list end*
%ADD10R,1.200000X1.600000*%
%ADD11R,0.800000X0.800000*%
%ADD12R,1.593000X2.000000*%
%ADD13R,3.500000X2.500000*%
%ADD14RoundRect,1.280000X-1.720000X0.320000X-1.720000X-0.320000X1.720000X-0.320000X1.720000X0.320000X0*%
%ADD15RoundRect,0.099250X0.297750X-0.727750X0.297750X0.727750X-0.297750X0.727750X-0.297750X-0.727750X0*%
%ADD16R,1.600000X1.200000*%
%ADD17C,1.808000*%
%ADD18O,2.045000X0.588000*%
%ADD19O,2.209800X1.117600*%
%ADD20C,3.200400*%
%ADD21RoundRect,0.218750X-0.218750X-0.381250X0.218750X-0.381250X0.218750X0.381250X-0.218750X0.381250X0*%
G04 APERTURE END LIST*
D10*
%TO.C,R2*%
X153500000Y-100000000D03*
X150500000Y-100000000D03*
%TD*%
%TO.C,R7*%
X138000000Y-91000000D03*
X141000000Y-91000000D03*
%TD*%
%TO.C,C2*%
X138000000Y-88000000D03*
X141000000Y-88000000D03*
%TD*%
%TO.C,C4*%
X138000000Y-95000000D03*
X141000000Y-95000000D03*
%TD*%
D11*
%TO.C,D2*%
X134000000Y-87500000D03*
X135500000Y-87500000D03*
%TD*%
D12*
%TO.C,D3*%
X148000000Y-100000000D03*
X148000000Y-104200000D03*
%TD*%
D13*
%TO.C,R3*%
X167500000Y-104000000D03*
X156500000Y-104000000D03*
%TD*%
D10*
%TO.C,C3*%
X153500000Y-104000000D03*
X150500000Y-104000000D03*
%TD*%
%TO.C,C1*%
X137350000Y-104000000D03*
X140350000Y-104000000D03*
%TD*%
D14*
%TO.C,F1*%
X152000000Y-78200000D03*
X152000000Y-83300000D03*
X152000000Y-87400000D03*
X152000000Y-92500000D03*
%TD*%
D15*
%TO.C,U3*%
X143100000Y-95000000D03*
X144050000Y-95000000D03*
X145000000Y-95000000D03*
X145000000Y-92690000D03*
X144050000Y-92690000D03*
X143100000Y-92690000D03*
%TD*%
D16*
%TO.C,R8*%
X135500000Y-92000000D03*
X135500000Y-95000000D03*
%TD*%
D17*
%TO.C,RLA1*%
X166000000Y-96500000D03*
X166000000Y-76500000D03*
X166000000Y-71500000D03*
X158500000Y-71500000D03*
X158500000Y-76500000D03*
X158500000Y-96500000D03*
%TD*%
D18*
%TO.C,U2*%
X142500000Y-101500000D03*
X142500000Y-100230000D03*
X142500000Y-98970000D03*
X142500000Y-97700000D03*
X137360000Y-97700000D03*
X137360000Y-98970000D03*
X137360000Y-100230000D03*
X137360000Y-101500000D03*
%TD*%
D10*
%TO.C,R1*%
X142500000Y-104000000D03*
X145500000Y-104000000D03*
%TD*%
D19*
%TO.C,J1*%
X178500001Y-102649999D03*
X178500001Y-89150000D03*
D20*
X172500000Y-99500000D03*
X172500000Y-92299999D03*
%TD*%
D19*
%TO.C,J2*%
X178500001Y-85850000D03*
X178500001Y-72350001D03*
D20*
X172500000Y-82700001D03*
X172500000Y-75500000D03*
%TD*%
D10*
%TO.C,R9*%
X143000000Y-88000000D03*
X146000000Y-88000000D03*
%TD*%
D21*
%TO.C,L1*%
X134000000Y-90000000D03*
X136125000Y-90000000D03*
%TD*%
M02*
