%TF.GenerationSoftware,KiCad,Pcbnew,10.0.3*%
%TF.CreationDate,2026-06-29T16:15:17-07:00*%
%TF.ProjectId,poachstopper,706f6163-6873-4746-9f70-7065722e6b69,rev?*%
%TF.SameCoordinates,Original*%
%TF.FileFunction,Legend,Top*%
%TF.FilePolarity,Positive*%
%FSLAX46Y46*%
G04 Gerber Fmt 4.6, Leading zero omitted, Abs format (unit mm)*
G04 Created by KiCad (PCBNEW 10.0.3) date 2026-06-29 16:15:17*
%MOMM*%
%LPD*%
G01*
G04 APERTURE LIST*
%ADD10C,0.150000*%
%ADD11C,0.120000*%
%ADD12C,0.060000*%
%ADD13C,0.000000*%
%ADD14C,0.250000*%
%ADD15C,0.127000*%
%ADD16C,0.200000*%
%ADD17C,0.152400*%
%ADD18C,0.300000*%
%ADD19C,0.508000*%
G04 APERTURE END LIST*
D10*
X151833333Y-98454819D02*
X151500000Y-97978628D01*
X151261905Y-98454819D02*
X151261905Y-97454819D01*
X151261905Y-97454819D02*
X151642857Y-97454819D01*
X151642857Y-97454819D02*
X151738095Y-97502438D01*
X151738095Y-97502438D02*
X151785714Y-97550057D01*
X151785714Y-97550057D02*
X151833333Y-97645295D01*
X151833333Y-97645295D02*
X151833333Y-97788152D01*
X151833333Y-97788152D02*
X151785714Y-97883390D01*
X151785714Y-97883390D02*
X151738095Y-97931009D01*
X151738095Y-97931009D02*
X151642857Y-97978628D01*
X151642857Y-97978628D02*
X151261905Y-97978628D01*
X152214286Y-97550057D02*
X152261905Y-97502438D01*
X152261905Y-97502438D02*
X152357143Y-97454819D01*
X152357143Y-97454819D02*
X152595238Y-97454819D01*
X152595238Y-97454819D02*
X152690476Y-97502438D01*
X152690476Y-97502438D02*
X152738095Y-97550057D01*
X152738095Y-97550057D02*
X152785714Y-97645295D01*
X152785714Y-97645295D02*
X152785714Y-97740533D01*
X152785714Y-97740533D02*
X152738095Y-97883390D01*
X152738095Y-97883390D02*
X152166667Y-98454819D01*
X152166667Y-98454819D02*
X152785714Y-98454819D01*
X142833333Y-90954819D02*
X142500000Y-90478628D01*
X142261905Y-90954819D02*
X142261905Y-89954819D01*
X142261905Y-89954819D02*
X142642857Y-89954819D01*
X142642857Y-89954819D02*
X142738095Y-90002438D01*
X142738095Y-90002438D02*
X142785714Y-90050057D01*
X142785714Y-90050057D02*
X142833333Y-90145295D01*
X142833333Y-90145295D02*
X142833333Y-90288152D01*
X142833333Y-90288152D02*
X142785714Y-90383390D01*
X142785714Y-90383390D02*
X142738095Y-90431009D01*
X142738095Y-90431009D02*
X142642857Y-90478628D01*
X142642857Y-90478628D02*
X142261905Y-90478628D01*
X143166667Y-89954819D02*
X143833333Y-89954819D01*
X143833333Y-89954819D02*
X143404762Y-90954819D01*
X140233333Y-86559580D02*
X140185714Y-86607200D01*
X140185714Y-86607200D02*
X140042857Y-86654819D01*
X140042857Y-86654819D02*
X139947619Y-86654819D01*
X139947619Y-86654819D02*
X139804762Y-86607200D01*
X139804762Y-86607200D02*
X139709524Y-86511961D01*
X139709524Y-86511961D02*
X139661905Y-86416723D01*
X139661905Y-86416723D02*
X139614286Y-86226247D01*
X139614286Y-86226247D02*
X139614286Y-86083390D01*
X139614286Y-86083390D02*
X139661905Y-85892914D01*
X139661905Y-85892914D02*
X139709524Y-85797676D01*
X139709524Y-85797676D02*
X139804762Y-85702438D01*
X139804762Y-85702438D02*
X139947619Y-85654819D01*
X139947619Y-85654819D02*
X140042857Y-85654819D01*
X140042857Y-85654819D02*
X140185714Y-85702438D01*
X140185714Y-85702438D02*
X140233333Y-85750057D01*
X140614286Y-85750057D02*
X140661905Y-85702438D01*
X140661905Y-85702438D02*
X140757143Y-85654819D01*
X140757143Y-85654819D02*
X140995238Y-85654819D01*
X140995238Y-85654819D02*
X141090476Y-85702438D01*
X141090476Y-85702438D02*
X141138095Y-85750057D01*
X141138095Y-85750057D02*
X141185714Y-85845295D01*
X141185714Y-85845295D02*
X141185714Y-85940533D01*
X141185714Y-85940533D02*
X141138095Y-86083390D01*
X141138095Y-86083390D02*
X140566667Y-86654819D01*
X140566667Y-86654819D02*
X141185714Y-86654819D01*
X139333333Y-93359580D02*
X139285714Y-93407200D01*
X139285714Y-93407200D02*
X139142857Y-93454819D01*
X139142857Y-93454819D02*
X139047619Y-93454819D01*
X139047619Y-93454819D02*
X138904762Y-93407200D01*
X138904762Y-93407200D02*
X138809524Y-93311961D01*
X138809524Y-93311961D02*
X138761905Y-93216723D01*
X138761905Y-93216723D02*
X138714286Y-93026247D01*
X138714286Y-93026247D02*
X138714286Y-92883390D01*
X138714286Y-92883390D02*
X138761905Y-92692914D01*
X138761905Y-92692914D02*
X138809524Y-92597676D01*
X138809524Y-92597676D02*
X138904762Y-92502438D01*
X138904762Y-92502438D02*
X139047619Y-92454819D01*
X139047619Y-92454819D02*
X139142857Y-92454819D01*
X139142857Y-92454819D02*
X139285714Y-92502438D01*
X139285714Y-92502438D02*
X139333333Y-92550057D01*
X140190476Y-92788152D02*
X140190476Y-93454819D01*
X139952381Y-92407200D02*
X139714286Y-93121485D01*
X139714286Y-93121485D02*
X140333333Y-93121485D01*
X133761905Y-86454819D02*
X133761905Y-85454819D01*
X133761905Y-85454819D02*
X134000000Y-85454819D01*
X134000000Y-85454819D02*
X134142857Y-85502438D01*
X134142857Y-85502438D02*
X134238095Y-85597676D01*
X134238095Y-85597676D02*
X134285714Y-85692914D01*
X134285714Y-85692914D02*
X134333333Y-85883390D01*
X134333333Y-85883390D02*
X134333333Y-86026247D01*
X134333333Y-86026247D02*
X134285714Y-86216723D01*
X134285714Y-86216723D02*
X134238095Y-86311961D01*
X134238095Y-86311961D02*
X134142857Y-86407200D01*
X134142857Y-86407200D02*
X134000000Y-86454819D01*
X134000000Y-86454819D02*
X133761905Y-86454819D01*
X134714286Y-85550057D02*
X134761905Y-85502438D01*
X134761905Y-85502438D02*
X134857143Y-85454819D01*
X134857143Y-85454819D02*
X135095238Y-85454819D01*
X135095238Y-85454819D02*
X135190476Y-85502438D01*
X135190476Y-85502438D02*
X135238095Y-85550057D01*
X135238095Y-85550057D02*
X135285714Y-85645295D01*
X135285714Y-85645295D02*
X135285714Y-85740533D01*
X135285714Y-85740533D02*
X135238095Y-85883390D01*
X135238095Y-85883390D02*
X134666667Y-86454819D01*
X134666667Y-86454819D02*
X135285714Y-86454819D01*
X145954819Y-101738094D02*
X144954819Y-101738094D01*
X144954819Y-101738094D02*
X144954819Y-101499999D01*
X144954819Y-101499999D02*
X145002438Y-101357142D01*
X145002438Y-101357142D02*
X145097676Y-101261904D01*
X145097676Y-101261904D02*
X145192914Y-101214285D01*
X145192914Y-101214285D02*
X145383390Y-101166666D01*
X145383390Y-101166666D02*
X145526247Y-101166666D01*
X145526247Y-101166666D02*
X145716723Y-101214285D01*
X145716723Y-101214285D02*
X145811961Y-101261904D01*
X145811961Y-101261904D02*
X145907200Y-101357142D01*
X145907200Y-101357142D02*
X145954819Y-101499999D01*
X145954819Y-101499999D02*
X145954819Y-101738094D01*
X144954819Y-100833332D02*
X144954819Y-100214285D01*
X144954819Y-100214285D02*
X145335771Y-100547618D01*
X145335771Y-100547618D02*
X145335771Y-100404761D01*
X145335771Y-100404761D02*
X145383390Y-100309523D01*
X145383390Y-100309523D02*
X145431009Y-100261904D01*
X145431009Y-100261904D02*
X145526247Y-100214285D01*
X145526247Y-100214285D02*
X145764342Y-100214285D01*
X145764342Y-100214285D02*
X145859580Y-100261904D01*
X145859580Y-100261904D02*
X145907200Y-100309523D01*
X145907200Y-100309523D02*
X145954819Y-100404761D01*
X145954819Y-100404761D02*
X145954819Y-100690475D01*
X145954819Y-100690475D02*
X145907200Y-100785713D01*
X145907200Y-100785713D02*
X145859580Y-100833332D01*
X170333333Y-107454819D02*
X170000000Y-106978628D01*
X169761905Y-107454819D02*
X169761905Y-106454819D01*
X169761905Y-106454819D02*
X170142857Y-106454819D01*
X170142857Y-106454819D02*
X170238095Y-106502438D01*
X170238095Y-106502438D02*
X170285714Y-106550057D01*
X170285714Y-106550057D02*
X170333333Y-106645295D01*
X170333333Y-106645295D02*
X170333333Y-106788152D01*
X170333333Y-106788152D02*
X170285714Y-106883390D01*
X170285714Y-106883390D02*
X170238095Y-106931009D01*
X170238095Y-106931009D02*
X170142857Y-106978628D01*
X170142857Y-106978628D02*
X169761905Y-106978628D01*
X170666667Y-106454819D02*
X171285714Y-106454819D01*
X171285714Y-106454819D02*
X170952381Y-106835771D01*
X170952381Y-106835771D02*
X171095238Y-106835771D01*
X171095238Y-106835771D02*
X171190476Y-106883390D01*
X171190476Y-106883390D02*
X171238095Y-106931009D01*
X171238095Y-106931009D02*
X171285714Y-107026247D01*
X171285714Y-107026247D02*
X171285714Y-107264342D01*
X171285714Y-107264342D02*
X171238095Y-107359580D01*
X171238095Y-107359580D02*
X171190476Y-107407200D01*
X171190476Y-107407200D02*
X171095238Y-107454819D01*
X171095238Y-107454819D02*
X170809524Y-107454819D01*
X170809524Y-107454819D02*
X170714286Y-107407200D01*
X170714286Y-107407200D02*
X170666667Y-107359580D01*
X151833333Y-106359580D02*
X151785714Y-106407200D01*
X151785714Y-106407200D02*
X151642857Y-106454819D01*
X151642857Y-106454819D02*
X151547619Y-106454819D01*
X151547619Y-106454819D02*
X151404762Y-106407200D01*
X151404762Y-106407200D02*
X151309524Y-106311961D01*
X151309524Y-106311961D02*
X151261905Y-106216723D01*
X151261905Y-106216723D02*
X151214286Y-106026247D01*
X151214286Y-106026247D02*
X151214286Y-105883390D01*
X151214286Y-105883390D02*
X151261905Y-105692914D01*
X151261905Y-105692914D02*
X151309524Y-105597676D01*
X151309524Y-105597676D02*
X151404762Y-105502438D01*
X151404762Y-105502438D02*
X151547619Y-105454819D01*
X151547619Y-105454819D02*
X151642857Y-105454819D01*
X151642857Y-105454819D02*
X151785714Y-105502438D01*
X151785714Y-105502438D02*
X151833333Y-105550057D01*
X152166667Y-105454819D02*
X152785714Y-105454819D01*
X152785714Y-105454819D02*
X152452381Y-105835771D01*
X152452381Y-105835771D02*
X152595238Y-105835771D01*
X152595238Y-105835771D02*
X152690476Y-105883390D01*
X152690476Y-105883390D02*
X152738095Y-105931009D01*
X152738095Y-105931009D02*
X152785714Y-106026247D01*
X152785714Y-106026247D02*
X152785714Y-106264342D01*
X152785714Y-106264342D02*
X152738095Y-106359580D01*
X152738095Y-106359580D02*
X152690476Y-106407200D01*
X152690476Y-106407200D02*
X152595238Y-106454819D01*
X152595238Y-106454819D02*
X152309524Y-106454819D01*
X152309524Y-106454819D02*
X152214286Y-106407200D01*
X152214286Y-106407200D02*
X152166667Y-106359580D01*
X135183333Y-106359580D02*
X135135714Y-106407200D01*
X135135714Y-106407200D02*
X134992857Y-106454819D01*
X134992857Y-106454819D02*
X134897619Y-106454819D01*
X134897619Y-106454819D02*
X134754762Y-106407200D01*
X134754762Y-106407200D02*
X134659524Y-106311961D01*
X134659524Y-106311961D02*
X134611905Y-106216723D01*
X134611905Y-106216723D02*
X134564286Y-106026247D01*
X134564286Y-106026247D02*
X134564286Y-105883390D01*
X134564286Y-105883390D02*
X134611905Y-105692914D01*
X134611905Y-105692914D02*
X134659524Y-105597676D01*
X134659524Y-105597676D02*
X134754762Y-105502438D01*
X134754762Y-105502438D02*
X134897619Y-105454819D01*
X134897619Y-105454819D02*
X134992857Y-105454819D01*
X134992857Y-105454819D02*
X135135714Y-105502438D01*
X135135714Y-105502438D02*
X135183333Y-105550057D01*
X136135714Y-106454819D02*
X135564286Y-106454819D01*
X135850000Y-106454819D02*
X135850000Y-105454819D01*
X135850000Y-105454819D02*
X135754762Y-105597676D01*
X135754762Y-105597676D02*
X135659524Y-105692914D01*
X135659524Y-105692914D02*
X135564286Y-105740533D01*
X146148276Y-94487619D02*
X146666371Y-94487619D01*
X146666371Y-94487619D02*
X146727323Y-94457142D01*
X146727323Y-94457142D02*
X146757800Y-94426666D01*
X146757800Y-94426666D02*
X146788276Y-94365714D01*
X146788276Y-94365714D02*
X146788276Y-94243809D01*
X146788276Y-94243809D02*
X146757800Y-94182857D01*
X146757800Y-94182857D02*
X146727323Y-94152380D01*
X146727323Y-94152380D02*
X146666371Y-94121904D01*
X146666371Y-94121904D02*
X146148276Y-94121904D01*
X146148276Y-93878095D02*
X146148276Y-93481904D01*
X146148276Y-93481904D02*
X146392085Y-93695238D01*
X146392085Y-93695238D02*
X146392085Y-93603809D01*
X146392085Y-93603809D02*
X146422561Y-93542857D01*
X146422561Y-93542857D02*
X146453038Y-93512381D01*
X146453038Y-93512381D02*
X146513990Y-93481904D01*
X146513990Y-93481904D02*
X146666371Y-93481904D01*
X146666371Y-93481904D02*
X146727323Y-93512381D01*
X146727323Y-93512381D02*
X146757800Y-93542857D01*
X146757800Y-93542857D02*
X146788276Y-93603809D01*
X146788276Y-93603809D02*
X146788276Y-93786666D01*
X146788276Y-93786666D02*
X146757800Y-93847619D01*
X146757800Y-93847619D02*
X146727323Y-93878095D01*
X133954819Y-93666666D02*
X133478628Y-93999999D01*
X133954819Y-94238094D02*
X132954819Y-94238094D01*
X132954819Y-94238094D02*
X132954819Y-93857142D01*
X132954819Y-93857142D02*
X133002438Y-93761904D01*
X133002438Y-93761904D02*
X133050057Y-93714285D01*
X133050057Y-93714285D02*
X133145295Y-93666666D01*
X133145295Y-93666666D02*
X133288152Y-93666666D01*
X133288152Y-93666666D02*
X133383390Y-93714285D01*
X133383390Y-93714285D02*
X133431009Y-93761904D01*
X133431009Y-93761904D02*
X133478628Y-93857142D01*
X133478628Y-93857142D02*
X133478628Y-94238094D01*
X133383390Y-93095237D02*
X133335771Y-93190475D01*
X133335771Y-93190475D02*
X133288152Y-93238094D01*
X133288152Y-93238094D02*
X133192914Y-93285713D01*
X133192914Y-93285713D02*
X133145295Y-93285713D01*
X133145295Y-93285713D02*
X133050057Y-93238094D01*
X133050057Y-93238094D02*
X133002438Y-93190475D01*
X133002438Y-93190475D02*
X132954819Y-93095237D01*
X132954819Y-93095237D02*
X132954819Y-92904761D01*
X132954819Y-92904761D02*
X133002438Y-92809523D01*
X133002438Y-92809523D02*
X133050057Y-92761904D01*
X133050057Y-92761904D02*
X133145295Y-92714285D01*
X133145295Y-92714285D02*
X133192914Y-92714285D01*
X133192914Y-92714285D02*
X133288152Y-92761904D01*
X133288152Y-92761904D02*
X133335771Y-92809523D01*
X133335771Y-92809523D02*
X133383390Y-92904761D01*
X133383390Y-92904761D02*
X133383390Y-93095237D01*
X133383390Y-93095237D02*
X133431009Y-93190475D01*
X133431009Y-93190475D02*
X133478628Y-93238094D01*
X133478628Y-93238094D02*
X133573866Y-93285713D01*
X133573866Y-93285713D02*
X133764342Y-93285713D01*
X133764342Y-93285713D02*
X133859580Y-93238094D01*
X133859580Y-93238094D02*
X133907200Y-93190475D01*
X133907200Y-93190475D02*
X133954819Y-93095237D01*
X133954819Y-93095237D02*
X133954819Y-92904761D01*
X133954819Y-92904761D02*
X133907200Y-92809523D01*
X133907200Y-92809523D02*
X133859580Y-92761904D01*
X133859580Y-92761904D02*
X133764342Y-92714285D01*
X133764342Y-92714285D02*
X133573866Y-92714285D01*
X133573866Y-92714285D02*
X133478628Y-92761904D01*
X133478628Y-92761904D02*
X133431009Y-92809523D01*
X133431009Y-92809523D02*
X133383390Y-92904761D01*
X156499999Y-69454819D02*
X156166666Y-68978628D01*
X155928571Y-69454819D02*
X155928571Y-68454819D01*
X155928571Y-68454819D02*
X156309523Y-68454819D01*
X156309523Y-68454819D02*
X156404761Y-68502438D01*
X156404761Y-68502438D02*
X156452380Y-68550057D01*
X156452380Y-68550057D02*
X156499999Y-68645295D01*
X156499999Y-68645295D02*
X156499999Y-68788152D01*
X156499999Y-68788152D02*
X156452380Y-68883390D01*
X156452380Y-68883390D02*
X156404761Y-68931009D01*
X156404761Y-68931009D02*
X156309523Y-68978628D01*
X156309523Y-68978628D02*
X155928571Y-68978628D01*
X157404761Y-69454819D02*
X156928571Y-69454819D01*
X156928571Y-69454819D02*
X156928571Y-68454819D01*
X157690476Y-69169104D02*
X158166666Y-69169104D01*
X157595238Y-69454819D02*
X157928571Y-68454819D01*
X157928571Y-68454819D02*
X158261904Y-69454819D01*
X159119047Y-69454819D02*
X158547619Y-69454819D01*
X158833333Y-69454819D02*
X158833333Y-68454819D01*
X158833333Y-68454819D02*
X158738095Y-68597676D01*
X158738095Y-68597676D02*
X158642857Y-68692914D01*
X158642857Y-68692914D02*
X158547619Y-68740533D01*
X139384819Y-100361904D02*
X140194342Y-100361904D01*
X140194342Y-100361904D02*
X140289580Y-100314285D01*
X140289580Y-100314285D02*
X140337200Y-100266666D01*
X140337200Y-100266666D02*
X140384819Y-100171428D01*
X140384819Y-100171428D02*
X140384819Y-99980952D01*
X140384819Y-99980952D02*
X140337200Y-99885714D01*
X140337200Y-99885714D02*
X140289580Y-99838095D01*
X140289580Y-99838095D02*
X140194342Y-99790476D01*
X140194342Y-99790476D02*
X139384819Y-99790476D01*
X139480057Y-99361904D02*
X139432438Y-99314285D01*
X139432438Y-99314285D02*
X139384819Y-99219047D01*
X139384819Y-99219047D02*
X139384819Y-98980952D01*
X139384819Y-98980952D02*
X139432438Y-98885714D01*
X139432438Y-98885714D02*
X139480057Y-98838095D01*
X139480057Y-98838095D02*
X139575295Y-98790476D01*
X139575295Y-98790476D02*
X139670533Y-98790476D01*
X139670533Y-98790476D02*
X139813390Y-98838095D01*
X139813390Y-98838095D02*
X140384819Y-99409523D01*
X140384819Y-99409523D02*
X140384819Y-98790476D01*
X142333333Y-106454819D02*
X142000000Y-105978628D01*
X141761905Y-106454819D02*
X141761905Y-105454819D01*
X141761905Y-105454819D02*
X142142857Y-105454819D01*
X142142857Y-105454819D02*
X142238095Y-105502438D01*
X142238095Y-105502438D02*
X142285714Y-105550057D01*
X142285714Y-105550057D02*
X142333333Y-105645295D01*
X142333333Y-105645295D02*
X142333333Y-105788152D01*
X142333333Y-105788152D02*
X142285714Y-105883390D01*
X142285714Y-105883390D02*
X142238095Y-105931009D01*
X142238095Y-105931009D02*
X142142857Y-105978628D01*
X142142857Y-105978628D02*
X141761905Y-105978628D01*
X143285714Y-106454819D02*
X142714286Y-106454819D01*
X143000000Y-106454819D02*
X143000000Y-105454819D01*
X143000000Y-105454819D02*
X142904762Y-105597676D01*
X142904762Y-105597676D02*
X142809524Y-105692914D01*
X142809524Y-105692914D02*
X142714286Y-105740533D01*
X171954819Y-92233333D02*
X172669104Y-92233333D01*
X172669104Y-92233333D02*
X172811961Y-92280952D01*
X172811961Y-92280952D02*
X172907200Y-92376190D01*
X172907200Y-92376190D02*
X172954819Y-92519047D01*
X172954819Y-92519047D02*
X172954819Y-92614285D01*
X172954819Y-91233333D02*
X172954819Y-91804761D01*
X172954819Y-91519047D02*
X171954819Y-91519047D01*
X171954819Y-91519047D02*
X172097676Y-91614285D01*
X172097676Y-91614285D02*
X172192914Y-91709523D01*
X172192914Y-91709523D02*
X172240533Y-91804761D01*
X177454820Y-79433334D02*
X178169105Y-79433334D01*
X178169105Y-79433334D02*
X178311962Y-79480953D01*
X178311962Y-79480953D02*
X178407201Y-79576191D01*
X178407201Y-79576191D02*
X178454820Y-79719048D01*
X178454820Y-79719048D02*
X178454820Y-79814286D01*
X177550058Y-79004762D02*
X177502439Y-78957143D01*
X177502439Y-78957143D02*
X177454820Y-78861905D01*
X177454820Y-78861905D02*
X177454820Y-78623810D01*
X177454820Y-78623810D02*
X177502439Y-78528572D01*
X177502439Y-78528572D02*
X177550058Y-78480953D01*
X177550058Y-78480953D02*
X177645296Y-78433334D01*
X177645296Y-78433334D02*
X177740534Y-78433334D01*
X177740534Y-78433334D02*
X177883391Y-78480953D01*
X177883391Y-78480953D02*
X178454820Y-79052381D01*
X178454820Y-79052381D02*
X178454820Y-78433334D01*
X144333333Y-86604819D02*
X144000000Y-86128628D01*
X143761905Y-86604819D02*
X143761905Y-85604819D01*
X143761905Y-85604819D02*
X144142857Y-85604819D01*
X144142857Y-85604819D02*
X144238095Y-85652438D01*
X144238095Y-85652438D02*
X144285714Y-85700057D01*
X144285714Y-85700057D02*
X144333333Y-85795295D01*
X144333333Y-85795295D02*
X144333333Y-85938152D01*
X144333333Y-85938152D02*
X144285714Y-86033390D01*
X144285714Y-86033390D02*
X144238095Y-86081009D01*
X144238095Y-86081009D02*
X144142857Y-86128628D01*
X144142857Y-86128628D02*
X143761905Y-86128628D01*
X144809524Y-86604819D02*
X145000000Y-86604819D01*
X145000000Y-86604819D02*
X145095238Y-86557200D01*
X145095238Y-86557200D02*
X145142857Y-86509580D01*
X145142857Y-86509580D02*
X145238095Y-86366723D01*
X145238095Y-86366723D02*
X145285714Y-86176247D01*
X145285714Y-86176247D02*
X145285714Y-85795295D01*
X145285714Y-85795295D02*
X145238095Y-85700057D01*
X145238095Y-85700057D02*
X145190476Y-85652438D01*
X145190476Y-85652438D02*
X145095238Y-85604819D01*
X145095238Y-85604819D02*
X144904762Y-85604819D01*
X144904762Y-85604819D02*
X144809524Y-85652438D01*
X144809524Y-85652438D02*
X144761905Y-85700057D01*
X144761905Y-85700057D02*
X144714286Y-85795295D01*
X144714286Y-85795295D02*
X144714286Y-86033390D01*
X144714286Y-86033390D02*
X144761905Y-86128628D01*
X144761905Y-86128628D02*
X144809524Y-86176247D01*
X144809524Y-86176247D02*
X144904762Y-86223866D01*
X144904762Y-86223866D02*
X145095238Y-86223866D01*
X145095238Y-86223866D02*
X145190476Y-86176247D01*
X145190476Y-86176247D02*
X145238095Y-86128628D01*
X145238095Y-86128628D02*
X145285714Y-86033390D01*
%TO.C,R2*%
D11*
X151000000Y-98930000D02*
X153000000Y-98930000D01*
X153000000Y-101070000D02*
X151000000Y-101070000D01*
%TO.C,R7*%
X138500000Y-89930000D02*
X140500000Y-89930000D01*
X140500000Y-92070000D02*
X138500000Y-92070000D01*
%TO.C,C2*%
X138500000Y-86930000D02*
X140500000Y-86930000D01*
X140500000Y-89070000D02*
X138500000Y-89070000D01*
%TO.C,C4*%
X138500000Y-93930000D02*
X140500000Y-93930000D01*
X140500000Y-96070000D02*
X138500000Y-96070000D01*
%TO.C,D2*%
X133950000Y-86800000D02*
X135550000Y-86800000D01*
X135550000Y-88200000D02*
X133950000Y-88200000D01*
%TO.C,D3*%
D10*
X146600000Y-99370000D02*
X146600000Y-104830000D01*
X146600000Y-104830000D02*
X147000000Y-104830000D01*
X149400000Y-99370000D02*
X149400000Y-104830000D01*
X149400000Y-101210000D02*
X146600000Y-101210000D01*
X149400000Y-104830000D02*
X149000000Y-104830000D01*
D12*
X146780000Y-99590000D02*
G75*
G02*
X146720000Y-99590000I-30000J0D01*
G01*
X146720000Y-99590000D02*
G75*
G02*
X146780000Y-99590000I30000J0D01*
G01*
D13*
G36*
X147051107Y-99449993D02*
G01*
X146522609Y-99449993D01*
X146522609Y-98992793D01*
X147051107Y-98992793D01*
X147051107Y-99449993D01*
G37*
G36*
X149477391Y-99449993D02*
G01*
X148948893Y-99449993D01*
X148948893Y-98992793D01*
X149477391Y-98992793D01*
X149477391Y-99449993D01*
G37*
%TO.C,R3*%
D14*
X155270000Y-100320000D02*
X168730000Y-100320000D01*
X155270000Y-102520000D02*
X155270000Y-100320000D01*
X155270000Y-107680000D02*
X155270000Y-105480000D01*
X168730000Y-100320000D02*
X168730000Y-102520000D01*
X168730000Y-105480000D02*
X168730000Y-105520000D01*
X168730000Y-105480000D02*
X168730000Y-107680000D01*
X168730000Y-107680000D02*
X155270000Y-107680000D01*
D12*
X168780000Y-100350000D02*
G75*
G02*
X168720000Y-100350000I-30000J0D01*
G01*
X168720000Y-100350000D02*
G75*
G02*
X168780000Y-100350000I30000J0D01*
G01*
%TO.C,C3*%
D11*
X151000000Y-102930000D02*
X153000000Y-102930000D01*
X153000000Y-105070000D02*
X151000000Y-105070000D01*
%TO.C,C1*%
X137850000Y-102930000D02*
X139850000Y-102930000D01*
X139850000Y-105070000D02*
X137850000Y-105070000D01*
%TO.C,U3*%
D15*
X142485000Y-94645000D02*
X142485000Y-93045000D01*
X145615000Y-94645000D02*
X145615000Y-93045000D01*
D16*
X142950000Y-96245000D02*
G75*
G02*
X142750000Y-96245000I-100000J0D01*
G01*
X142750000Y-96245000D02*
G75*
G02*
X142950000Y-96245000I100000J0D01*
G01*
%TO.C,R8*%
D11*
X134430000Y-94500000D02*
X134430000Y-92500000D01*
X136570000Y-92500000D02*
X136570000Y-94500000D01*
%TO.C,RLA1*%
D17*
X155873000Y-69873007D02*
X155873000Y-98927001D01*
X155873000Y-98927001D02*
X168627000Y-98927001D01*
X168627000Y-69873007D02*
X155873000Y-69873007D01*
X168627000Y-98927001D02*
X168627000Y-69873007D01*
%TO.C,U2*%
D10*
X138410000Y-97070000D02*
X141450000Y-97070000D01*
X138410000Y-102130000D02*
X138410000Y-97070000D01*
X141450000Y-97070000D02*
X141450000Y-102130000D01*
X141450000Y-102130000D02*
X138410000Y-102130000D01*
D18*
X140850000Y-101500000D02*
G75*
G02*
X140550000Y-101500000I-150000J0D01*
G01*
X140550000Y-101500000D02*
G75*
G02*
X140850000Y-101500000I150000J0D01*
G01*
X142850000Y-102250000D02*
G75*
G02*
X142550000Y-102250000I-150000J0D01*
G01*
X142550000Y-102250000D02*
G75*
G02*
X142850000Y-102250000I150000J0D01*
G01*
D12*
X142960000Y-102050000D02*
G75*
G02*
X142900000Y-102050000I-30000J0D01*
G01*
X142900000Y-102050000D02*
G75*
G02*
X142960000Y-102050000I30000J0D01*
G01*
%TO.C,R1*%
D11*
X143000000Y-102930000D02*
X145000000Y-102930000D01*
X145000000Y-105070000D02*
X143000000Y-105070000D01*
%TO.C,J1*%
D17*
X170523000Y-88026000D02*
X170523000Y-103774000D01*
X170523000Y-103774000D02*
X186016998Y-103774000D01*
X186016998Y-88026000D02*
X170523000Y-88026000D01*
X186016998Y-103774000D02*
X186016998Y-88026000D01*
D19*
X172881000Y-105552000D02*
G75*
G02*
X172119000Y-105552000I-381000J0D01*
G01*
X172119000Y-105552000D02*
G75*
G02*
X172881000Y-105552000I381000J0D01*
G01*
%TO.C,J2*%
D17*
X170523000Y-71226001D02*
X170523000Y-86974001D01*
X170523000Y-86974001D02*
X186016998Y-86974001D01*
X186016998Y-71226001D02*
X170523000Y-71226001D01*
X186016998Y-86974001D02*
X186016998Y-71226001D01*
D19*
X172881000Y-88752001D02*
G75*
G02*
X172119000Y-88752001I-381000J0D01*
G01*
X172119000Y-88752001D02*
G75*
G02*
X172881000Y-88752001I381000J0D01*
G01*
%TO.C,R9*%
D11*
X143500000Y-86930000D02*
X145500000Y-86930000D01*
X145500000Y-89070000D02*
X143500000Y-89070000D01*
%TO.C,L1*%
X134662878Y-89440000D02*
X135462122Y-89440000D01*
X134662878Y-90560000D02*
X135462122Y-90560000D01*
%TD*%
M02*
